<?xml version="1.0" encoding="UTF-8"?>
<svg width="35px" height="55px" viewBox="0 0 35 55" version="1.1" xmlns="http://www.w3.org/2000/svg" xmlns:xlink="http://www.w3.org/1999/xlink">
    <title>Components / Back to Top</title>
    <g id="Components-/-Back-to-Top" stroke="none" stroke-width="1" fill="none" fill-rule="evenodd">
        <g id="Group-Copy-4" transform="translate(17.500000, 17.000000) rotate(-90.000000) translate(-17.500000, -17.000000) translate(0.500000, -0.500000)">
            <path d="M17,0.5 C21.5563492,0.5 25.6813492,2.34682541 28.6672619,5.33273811 C31.6531746,8.31865081 33.5,12.4436508 33.5,17 L33.5,34.5 L0.5,34.5 L0.5,17 C0.5,12.4436508 2.34682541,8.31865081 5.33273811,5.33273811 C8.31865081,2.34682541 12.4436508,0.5 17,0.5 Z" id="Rectangle" stroke="#FFFFFF" fill="#046183"></path>
            <g id="Icon/Chevron/Down/Default" transform="translate(17.500000, 18.500000) rotate(-360.000000) translate(-17.500000, -18.500000) translate(13.249981, 11.249981)" fill="#F8F8F8">
                <path d="M8.50003814,7.25003814 C8.50003814,7.52203814 8.38928814,7.78228814 8.19303814,7.97078814 L1.69303814,14.2207881 C1.49928814,14.4072881 1.24953814,14.5000381 1.00003814,14.5000381 C0.737538137,14.5000381 0.475538137,14.3972881 0.279288137,14.1930381 C-0.103711863,13.7950381 -0.0912118633,13.1620381 0.307038137,12.7792881 L6.05728814,7.25003814 L0.307038137,1.72078814 C-0.0912118633,1.33803814 -0.103711863,0.705038137 0.279288137,0.307038137 C0.661788137,-0.0912118633 1.29478814,-0.103711863 1.69303814,0.279288137 L8.19303814,6.52928814 C8.38928814,6.71778814 8.50003814,6.97803814 8.50003814,7.25003814" id="chevron-right"></path>
            </g>
        </g>
        <path d="M15.531,41.008 C17.0914781,41.008 18.4350111,41.5720601 19.3902805,42.5163809 C20.3444814,43.4596454 20.917,44.7871253 20.917,46.338 C20.917,47.8888747 20.3444814,49.2163546 19.3902805,50.1596191 C18.4350111,51.1039399 17.0914781,51.668 15.531,51.668 C13.9768545,51.668 12.6359466,51.1033823 11.6821105,50.1577689 C10.7308254,49.2146846 10.159,47.8878973 10.159,46.338 C10.159,44.7881027 10.7308254,43.4613154 11.6821105,42.5182311 C12.6359466,41.5726177 13.9768545,41.008 15.531,41.008 Z M15.531,43.772 C14.8391584,43.772 14.2648295,44.0254917 13.8627744,44.4613831 C13.4335675,44.9267114 13.203,45.5880421 13.203,46.338 C13.203,47.0834628 13.435046,47.7457331 13.8657696,48.2127057 C14.2675663,48.648317 14.8406134,48.904 15.531,48.904 C16.2233423,48.904 16.8004552,48.6470209 17.2057301,48.2098032 C17.6382137,47.7432322 17.873,47.0821878 17.873,46.338 C17.873,45.5893287 17.6397083,44.9292151 17.2087448,44.464284 C16.8032069,44.0267825 16.2248014,43.772 15.531,43.772 Z M10.669,41.162 L10.669,43.912 L7.953,43.912 L7.953,51.5 L4.951,51.5 L4.951,43.912 L2.221,43.912 L2.221,41.162 L10.669,41.162 Z M26.185,41.162 C27.3092723,41.162 28.1813631,41.5376811 28.79061,42.1224494 C29.4613151,42.7662065 29.821,43.6743006 29.821,44.672 C29.821,45.6612737 29.4582853,46.5615598 28.7865709,47.2002882 C28.175724,47.7811382 27.3030161,48.154 26.185,48.154 L24.305,48.154 L24.305,51.5 L21.317,51.5 L21.317,41.162 L26.185,41.162 Z M25.919,43.87 L24.305,43.87 L24.305,45.446 L25.919,45.446 C26.1766685,45.446 26.4073993,45.3718424 26.5683053,45.2207878 C26.7127939,45.0851454 26.791,44.8896157 26.791,44.658 C26.791,44.4293417 26.7104888,44.2340107 26.5650382,44.0974652 C26.4045369,43.9467906 26.1754073,43.87 25.919,43.87 Z" id="Combined-Shape" stroke="#FFFFFF" fill="#046183" fill-rule="nonzero"></path>
    </g>
</svg>
