<?xml version="1.0" encoding="utf-8" ?>
<svg xmlns="http://www.w3.org/2000/svg" xmlns:xlink="http://www.w3.org/1999/xlink" width="103" height="97">
	<path fill="#FDE8E8" transform="translate(2.39771 2.24805)" d="M4.5756612 38.89748L55.216816 2.1425471C61.266411 -2.2482536 69.871819 0.40294835 72.350693 7.4211211L96.653297 76.226357C99.870659 85.335114 90.626503 93.886497 81.692558 90.066002L6.7487936 58.015701C-1.1857049 54.622532 -2.3976598 43.958755 4.5756612 38.89748" fill-rule="evenodd"/>
	<path fill="none" stroke="#006186" stroke-width="1.9355" stroke-linecap="round" stroke-linejoin="round" transform="translate(17.4977 12.348)" d="M40.1366 80.273201C62.303501 80.273201 80.273201 62.303501 80.273201 40.135899C80.273201 17.9704 62.303501 0 40.1366 0C17.9697 0 0 17.9704 0 40.135899C0 62.303501 17.9697 80.273201 40.1366 80.273201" fill-rule="evenodd"/>
	<path fill="none" stroke="#046183" stroke-width="2.0999999" stroke-miterlimit="10" transform="translate(40.5977 26.348)" d="M18.594471 21.701777C11.429765 20.218142 9.8823528 19.329557 9.8823528 16.705769C9.8823528 14.042345 13.050306 11.792308 16.799999 11.792308C20.549694 11.792308 23.717648 14.042345 23.717648 16.705769L31.623529 16.705769C31.623529 10.842863 27.010447 5.901886 20.752941 4.4060645L20.752941 0L12.847059 0L12.847059 4.4060645C6.5875764 5.9018536 1.9764706 10.842863 1.9764706 16.705769C1.9764706 26.288984 11.006965 28.160358 16.982 29.398224C24.146706 30.881859 25.694118 31.770443 25.694118 34.39423C25.694118 36.111977 25.694118 39.307693 16.799999 39.307693C11.708941 39.307693 7.9058824 36.713383 7.9058824 34.39423L0 34.39423C0 40.516239 5.3979058 45.493084 12.847059 46.813496L12.847059 51.099998L20.752941 51.099998L20.752941 46.925522C31.795317 45.59671 33.599998 38.694164 33.599998 34.39423C33.599998 24.811016 24.571482 22.939642 18.594471 21.701777L18.594471 21.701777Z"/>
</svg>
