<?xml version="1.0" encoding="UTF-8"?>
<svg width="116px" height="109px" viewBox="0 0 116 109" version="1.1" xmlns="http://www.w3.org/2000/svg" xmlns:xlink="http://www.w3.org/1999/xlink">
    <title>icon-savings-coral-116-tablet</title>
    <g id="Build-Kit" stroke="none" stroke-width="1" fill="none" fill-rule="evenodd">
        <g id="icon-savings-coral-116-tablet">
            <path d="M5.45466484,46.0850582 L65.8241964,2.53845268 C73.0359465,-2.66369181 83.2944913,0.477406197 86.2495617,8.79241518 L115.220803,90.3116607 C119.056231,101.103562 108.03623,111.235087 97.3860376,106.708633 L8.04526527,68.7359925 C-1.41348377,64.7158273 -2.85826037,52.0815693 5.45466484,46.0850582" id="Fill-1" fill="#FDE8E8"></path>
            <g id="icons/Migraine-Copy" transform="translate(18.0852, 11.7569)">
                <g id="Group-5" transform="translate(-0, 0)">
                    <path d="M47.762554,95.525108 C74.141165,95.525108 95.525108,74.141165 95.525108,47.761721 C95.525108,21.384776 74.141165,0 47.762554,0 C21.383943,0 0,21.384776 0,47.761721 C0,74.141165 21.383943,95.525108 47.762554,95.525108" id="Stroke-1" stroke="#006186" stroke-width="2.303245" stroke-linecap="round" stroke-linejoin="round"></path>
                    <g id="noun-dollar-5224780" transform="translate(27.489, 16.66)" fill-rule="nonzero" stroke="#046183" stroke-width="2.499">
                        <path d="M22.12742,25.8251145 C13.60142,24.0595876 11.76,23.0021737 11.76,19.8798654 C11.76,16.7103912 15.529864,14.0328462 19.992,14.0328462 C24.454136,14.0328462 28.224,16.7103912 28.224,19.8798654 L37.632,19.8798654 C37.632,12.9030071 32.142432,7.0232446 24.696,5.24321704 L24.696,0 L15.288,0 L15.288,5.24321704 C7.839216,7.02320562 2.352,12.9030071 2.352,19.8798654 C2.352,31.2838917 13.098288,33.5108264 20.20858,34.9838855 C28.73458,36.7494124 30.576,37.8068263 30.576,40.9291346 C30.576,42.9732525 30.576,46.7761538 19.992,46.7761538 C13.93364,46.7761538 9.408,43.6889277 9.408,40.9291346 L0,40.9291346 C0,48.2143257 6.423508,54.1367715 15.288,55.7080604 L15.288,60.809 L24.696,60.809 L24.696,55.8413725 C37.836428,54.2600851 39.984,46.046056 39.984,40.9291346 C39.984,29.5251083 29.240064,27.2981736 22.12742,25.8251145 L22.12742,25.8251145 Z" id="Path"></path>
                    </g>
                </g>
            </g>
        </g>
    </g>
</svg>