<?xml version="1.0" encoding="UTF-8"?>
<svg width="58px" height="58px" viewBox="0 0 58 58" version="1.1" xmlns="http://www.w3.org/2000/svg" xmlns:xlink="http://www.w3.org/1999/xlink">
    <title>icon-information-58-universal@2x</title>
    <g id="Build-Kit" stroke="none" stroke-width="1" fill="none" fill-rule="evenodd" stroke-linecap="round" stroke-linejoin="round">
        <g id="icon-information-58-universal" transform="translate(1.6411, 1.6411)" stroke="#006186" stroke-width="1.3272">
            <g id="Group-5">
                <path d="M27.52224,55.04448 C42.7224,55.04448 55.04448,42.7224 55.04448,27.52176 C55.04448,12.32256 42.7224,0 27.52224,0 C12.32208,0 0,12.32256 0,27.52176 C0,42.7224 12.32208,55.04448 27.52224,55.04448" id="Stroke-1"></path>
                <path d="M23.316192,14.440224 C23.316192,13.889664 23.416512,13.371744 23.618112,12.887424 C23.818752,12.403584 24.098112,11.983584 24.455712,11.625984 C24.812832,11.267424 25.233312,10.985664 25.717632,10.777344 C26.201472,10.568544 26.726112,10.464864 27.292512,10.464864 C27.828672,10.464864 28.335072,10.568544 28.811712,10.777344 C29.287872,10.985664 29.704992,11.267424 30.062112,11.625984 C30.419712,11.983584 30.702912,12.403584 30.911232,12.887424 C31.119552,13.371744 31.224192,13.889664 31.224192,14.440224 C31.224192,14.991744 31.119552,15.509184 30.911232,15.993024 C30.702912,16.477344 30.419712,16.897824 30.062112,17.254464 C29.704992,17.612064 29.287872,17.895744 28.811712,18.103104 C28.335072,18.312384 27.828672,18.416544 27.292512,18.416544 C26.726112,18.416544 26.201472,18.312384 25.717632,18.103104 C25.233312,17.895744 24.812832,17.612064 24.455712,17.254464 C24.098112,16.897824 23.818752,16.477344 23.618112,15.993024 C23.416512,15.509184 23.316192,14.991744 23.316192,14.440224 Z M20.992032,40.799424 L20.992032,39.235104 C20.992032,38.941344 21.229632,38.704224 21.522432,38.704224 L23.806752,38.704224 C24.099552,38.704224 24.337632,38.466624 24.337632,38.173344 L24.337632,28.770144 C24.337632,28.477344 24.099552,28.239264 23.806752,28.239264 L21.522432,28.239264 C21.229632,28.239264 20.992032,28.002144 20.992032,27.708864 L20.992032,22.895424 C20.992032,22.601664 21.229632,22.364544 21.522432,22.364544 L30.432672,22.364544 C30.725472,22.364544 30.963552,22.601664 30.963552,22.895424 L30.963552,38.173344 C30.963552,38.466624 31.201152,38.704224 31.494432,38.704224 L33.520992,38.704224 C33.813792,38.704224 34.051872,38.941344 34.051872,39.235104 L34.051872,44.049504 C34.051872,44.342304 33.813792,44.580384 33.520992,44.580384 L21.794592,44.580384 L20.992032,40.799424 Z" id="Stroke-3"></path>
            </g>
        </g>
    </g>
</svg>