<svg xmlns="http://www.w3.org/2000/svg" width="24" height="24" viewBox="0 0 24 24"><title>instagram-logo-uppernav-24-desktop</title><path fill="#fff" d="M18 0a6 6 0 0 1 6 6v12a6 6 0 0 1-6 6H6a6 6 0 0 1-6-6V6a6 6 0 0 1 6-6Zm0 2.25H6A3.75 3.75 0 0 0 2.25 6v12A3.75 3.75 0 0 0 6 21.75h12A3.75 3.75 0 0 0 21.75 18V6A3.75 3.75 0 0 0 18 2.25m-6 3.656a6.094 6.094 0 1 1 0 12.188 6.094 6.094 0 0 1 0-12.188m0 2.25a3.844 3.844 0 1 0 0 7.688 3.844 3.844 0 0 0 0-7.688m6.465-4.125a1.5 1.5 0 1 1 0 3 1.5 1.5 0 0 1 0-3"/></svg>