<svg xmlns="http://www.w3.org/2000/svg" width="27" height="27" viewBox="0 0 27 27"><title>instagram-logo-lowernav-27-desktop</title><path fill="#046183" d="M20.25 0A6.75 6.75 0 0 1 27 6.75v13.5A6.75 6.75 0 0 1 20.25 27H6.75A6.75 6.75 0 0 1 0 20.25V6.75A6.75 6.75 0 0 1 6.75 0Zm0 2.531H6.75A4.22 4.22 0 0 0 2.531 6.75v13.5a4.22 4.22 0 0 0 4.219 4.219h13.5a4.22 4.22 0 0 0 4.219-4.219V6.75a4.22 4.22 0 0 0-4.219-4.219M13.5 6.645a6.855 6.855 0 1 1 0 13.71 6.855 6.855 0 0 1 0-13.71m0 2.53a4.324 4.324 0 1 0 0 8.65 4.324 4.324 0 0 0 0-8.65m7.277-4.64a1.688 1.688 0 1 1 0 3.375 1.688 1.688 0 0 1 0-3.375"/></svg>