<svg xmlns="http://www.w3.org/2000/svg" width="39" height="35" fill="none" fill-rule="evenodd"><path fill="#eff6f9" d="m.179 16.134 4.713 15.564c.615 2.03 2.654 3.249 4.702 2.811l26.194-5.595c1.872-.4 3.213-2.076 3.213-4.017V4.108c0-2.82-2.739-4.8-5.367-3.88L2.727 11.048C.666 11.77-.461 14.019.179 16.134"/><g stroke="#006186" stroke-width=".774"><path d="M20.39 34.346c8.822 0 15.973-7.229 15.973-16.147S29.211 2.052 20.39 2.052 4.417 9.281 4.417 18.199s7.151 16.147 15.973 16.147"/><path d="M15.175 9.229c-2.938 2.97-2.938 7.786 0 10.757l5.32 5.378 5.32-5.378c2.938-2.97 2.938-7.786 0-10.756s-7.702-2.971-10.64 0z"/><path d="M19.209 13.18h-2.233v2.602h2.233v2.257h2.573v-2.257h2.231V13.18h-2.231v-2.255h-2.573zm5.972 11.507 2.834 1.373-7.52 3.643-7.52-3.643 5.55-2.689"/></g></svg>