<svg xmlns="http://www.w3.org/2000/svg" xmlns:xlink="http://www.w3.org/1999/xlink" width="174" height="106"><defs><path id="a" d="M0 0h30.307v52.875H0z"/><path id="c" d="M0 0h8.419v10.692H0z"/></defs><g fill="none" fill-rule="evenodd" transform="translate(.44)"><path fill="#c41748" d="M47.477 43.432c-1.24 0-2.738-.511-3.72-2.815l-6.246-14.551a3.7 3.7 0 0 1-.341-1.453c0-1.408 1.111-2.433 2.609-2.433.812 0 1.839.299 2.522 2.092l5.135 13.242h.083l5.264-13.269c.683-1.752 1.71-2.051 2.48-2.051 1.494 0 2.522 1.025 2.522 2.35a3.6 3.6 0 0 1-.341 1.449l-6.249 14.623c-.978 2.315-2.518 2.815-3.716 2.815m25.33 4.011c-1.54 3.757-3.379 5.846-7.785 5.846-2.18 0-2.821-1.279-2.821-2.304a2.066 2.066 0 0 1 1.71-2.088 4.4 4.4 0 0 1 .812-.045c1.369 0 2.696-.851 3.637-3.201l1.035-2.603-7.747-16.981a4.1 4.1 0 0 1-.341-1.513 2.433 2.433 0 0 1 2.469-2.395l.099.004c.899 0 1.896.378 2.567 2.005l5.559 13.273h.083l4.789-13.144c.645-1.748 1.669-2.134 2.526-2.134 1.452 0 2.522.938 2.522 2.304-.01.485-.112.964-.3 1.411L72.81 47.443zm27.458-16.685c0-2.648-1.517-4.949-4.835-4.949-3.034 0-5.472 2.092-5.688 4.949zm-10.523 3.67c.216 2.902 2.867 5.036 5.862 5.036a6.7 6.7 0 0 0 4.702-1.748c.728-.598 1.198-.726 1.756-.726a1.975 1.975 0 0 1 2.052 1.892v.155a2.6 2.6 0 0 1-.857 1.835c-2.01 1.922-4.319 2.773-7.611 2.773-6.329 0-11.035-4.052-11.035-10.711s4.66-10.972 10.864-10.972c4.96 0 8.98 2.815 9.791 8.835a10 10 0 0 1 .087 1.067c0 1.79-.982 2.558-2.696 2.558l-12.916.007z"/><path fill="#7cbbc6" d="M158.795 15.252c1.495 0 2.708 1.209 2.708 2.701s-1.212 2.702-2.708 2.702-2.708-1.209-2.708-2.702 1.212-2.701 2.708-2.701"/><path fill="#c41748" d="M121.973 26.148c-3.762 0-6.029 3.458-6.029 6.659s2.275 6.568 6.029 6.568c3.978 0 5.901-3.454 5.901-6.655s-1.923-6.572-5.901-6.572m1.028 17.495c-2.867 0-5.476-1.279-6.799-3.326h-.087v10.496c0 2.433-1.71 2.86-2.567 2.86s-2.563-.427-2.563-2.86V24.911c0-2.304 1.665-2.732 2.435-2.732s2.484.428 2.484 2.732v.511h.137c1.028-1.619 3.337-3.454 7.103-3.454 5.847 0 9.962 4.695 9.962 10.749 0 5.978-3.86 10.927-10.102 10.927m23.815-.171c-5.43 0-6.629-3.326-6.629-7.253v-9.557h-1.669c-1.964 0-2.309-1.366-2.309-2.051s.345-2.047 2.309-2.047h1.669v-3.541c0-2.35 1.668-2.773 2.526-2.773s2.522.424 2.522 2.773v3.541h3.208c1.968 0 2.309 1.366 2.309 2.047s-.341 2.051-2.309 2.051h-3.208v9.516c0 2.005.686 3.072 1.968 3.072a7 7 0 0 0 .812-.087 4 4 0 0 1 .599-.042 1.87 1.87 0 0 1 1.966 1.771l.002.147a2.09 2.09 0 0 1-1.24 1.892 5.8 5.8 0 0 1-2.526.541m11.976-.041c-.853 0-2.563-.427-2.563-2.86V25.04c0-2.433 1.71-2.86 2.563-2.86s2.567.427 2.567 2.86v15.532c0 2.433-1.714 2.86-2.567 2.86"/><mask id="b" fill="#fff"><use xlink:href="#a"/></mask><path fill="#f26361" d="M27.205 14.877 2.423.178A1.674 1.674 0 0 0 .178.919 1.7 1.7 0 0 0 0 1.691c.002.298.085.589.239.844l30.068 50.34z" mask="url(#b)"/><path fill="#7cbbc6" d="M39.779 19.315c1.38 0 3.894.511 5.203 3.927l1.32 3.405 12.01-24.041a1.74 1.74 0 0 0-.71-2.356 1.75 1.75 0 0 0-.83-.208H27.895a1.74 1.74 0 0 0-1.729 1.74l1.054 13.095 9.329 5.441a5.64 5.64 0 0 1 3.231-1.003"/><path fill="#c41748" d="M34.888 27.193a6.5 6.5 0 0 1-.576-2.58 5.2 5.2 0 0 1 2.237-4.294l-9.344-5.441 3.106 37.998a1.65 1.65 0 0 0 2.246.629c.275-.154.499-.383.648-.66l6.826-13.621-5.142-12.032z"/><path fill="#6d6e71" d="m8.68 93.276-1.517 1.362a.54.54 0 0 1-.353.163.477.477 0 0 1-.467-.487.55.55 0 0 1 .213-.417l2.002-1.729c.269-.238.425-.314.607-.314s.535.091.535.624v9.478c0 .503-.337.59-.508.59s-.504-.087-.504-.59zm6.386-.677c-1.775 0-2.241 2.531-2.241 4.62s.466 4.578 2.241 4.578 2.241-2.49 2.241-4.578-.493-4.623-2.241-4.623zm0 10.113c-2.51 0-3.273-2.77-3.273-5.494s.758-5.524 3.273-5.524 3.273 2.8 3.273 5.524-.789 5.494-3.273 5.494m7.911-10.113c-1.775 0-2.241 2.531-2.241 4.62s.466 4.578 2.241 4.578 2.245-2.49 2.245-4.578-.497-4.623-2.245-4.623zm0 10.113c-2.499 0-3.257-2.773-3.257-5.497s.758-5.524 3.269-5.524 3.273 2.8 3.273 5.524-.8 5.497-3.284 5.497zm8.319-5.675-.027-1.109a.443.443 0 0 1 .361-.512.5.5 0 0 1 .09-.006c.156 0 .451.057.466.518l.027.757h.019a2.42 2.42 0 0 1 2.169-1.362 2.04 2.04 0 0 1 2.033 1.468 2.43 2.43 0 0 1 2.309-1.468c1.68 0 2.51 1.135 2.51 2.857v3.806c0 .477-.322.549-.478.549s-.478-.072-.478-.549v-3.405c0-1.453-.466-2.429-1.706-2.429-1.384 0-1.896 1.29-1.896 2.577v3.242c0 .477-.326.549-.478.549s-.482-.072-.482-.549v-3.572c0-1.347-.311-2.221-1.593-2.221-.918 0-1.919.859-1.919 2.709v3.11c0 .477-.322.549-.478.549s-.482-.072-.482-.549l.03-4.96zm15.347 4.54c1.483 0 2.541-1.097 2.541-2.698a2.606 2.606 0 0 0-2.5-2.708l-.041-.001c-1.593 0-2.495 1.26-2.495 2.709s.899 2.698 2.495 2.698m-3.246 2.909a.47.47 0 0 1 .451-.488c.16.009.296.072.395.177a3.33 3.33 0 0 0 2.226.931c1.896 0 2.582-1.23 2.582-2.724v-1.301h-.027a2.97 2.97 0 0 1-2.499 1.362c-2.059 0-3.413-1.514-3.413-3.526 0-1.967 1.354-3.583 3.413-3.583a2.93 2.93 0 0 1 2.499 1.377h.027v-.757c0-.473.322-.545.478-.545s.482.072.482.545v6.432c0 1.513-.664 3.613-3.584 3.613a4.25 4.25 0 0 1-2.817-1.067.58.58 0 0 1-.212-.447m12.494-12.469a.423.423 0 0 1 .829.086l.001.035a.8.8 0 0 1-.042.219l-3.97 10.026a.41.41 0 0 1-.379.31.43.43 0 0 1-.451-.404l-.001-.023a.8.8 0 0 1 .042-.223l3.97-10.026zm1.862 5.021-.03-1.109a.447.447 0 0 1 .452-.519c.156 0 .451.057.467.518l.026.757h.03a2.42 2.42 0 0 1 2.169-1.362 2.04 2.04 0 0 1 2.033 1.468 2.43 2.43 0 0 1 2.313-1.468c1.676 0 2.51 1.135 2.51 2.857v3.806c0 .477-.326.549-.482.549s-.478-.072-.478-.549V98.58c0-1.453-.466-2.429-1.707-2.429-1.384 0-1.877 1.29-1.877 2.577v3.242c0 .477-.322.549-.478.549s-.482-.072-.482-.549v-3.572c0-1.347-.307-2.221-1.593-2.221-.914 0-1.919.859-1.919 2.709v3.11c0 .477-.322.549-.478.549s-.478-.072-.478-.549v-4.96zm12.366-4.59c0-.503.337-.594.508-.594s.508.091.508.594v9.046h4.259a.477.477 0 1 1 .085.95h-4.753c-.409 0-.607-.208-.607-.639zm14.27 9.508c0 .503-.337.59-.504.59s-.508-.087-.508-.59v-9.508c0-.503.337-.594.508-.594s.504.091.504.594zm3.371-5.259h.03a2.55 2.55 0 0 1 2.275-1.362c1.676 0 2.51 1.135 2.51 2.857v3.806c0 .477-.326.549-.481.549s-.478-.072-.478-.549v-3.405c0-1.453-.409-2.429-1.794-2.429-1.012 0-2.002.859-2.002 2.709v3.11c0 .477-.322.549-.478.549s-.478-.072-.478-.549v-4.945l-.03-1.109a.443.443 0 0 1 .451-.518c.156 0 .451.057.466.518zm7.36-3.14a.71.71 0 0 1-.068-1.42.71.71 0 0 1 .746.676l.001.033a.7.7 0 0 1-.679.711m-2.184 11.967a.38.38 0 0 1 .322-.428.4.4 0 0 1 .057-.004c.129 0 .281.045.425.045.758 0 .887-.605.887-1.479v-7.703c0-.473.322-.545.478-.545s.482.072.482.545v7.866c0 1.109-.379 2.176-1.896 2.176-.429 0-.755-.117-.755-.473m10.11-7.079c-.057-1.302-.815-2.27-2.184-2.27a2.39 2.39 0 0 0-2.313 2.27zm-4.513.798a2.474 2.474 0 0 0 2.412 2.52 2.44 2.44 0 0 0 1.896-.904.48.48 0 0 1 .379-.193.43.43 0 0 1 .436.42v.023a.52.52 0 0 1-.14.356 3.27 3.27 0 0 1-2.567 1.158c-1.961 0-3.413-1.555-3.413-3.644s1.437-3.644 3.333-3.644 3.159 1.347 3.159 3.405a.46.46 0 0 1-.397.519.4.4 0 0 1-.126-.001l-4.971-.015zm12.412 1.688a.413.413 0 0 1 .421.404v.027a.54.54 0 0 1-.167.378 2.98 2.98 0 0 1-2.215.874c-2.131 0-3.527-1.555-3.527-3.643s1.396-3.644 3.527-3.644a3.1 3.1 0 0 1 2.127.829.55.55 0 0 1 .186.401.44.44 0 0 1-.436.443c-.129 0-.228-.03-.482-.28a1.96 1.96 0 0 0-1.38-.549c-1.54 0-2.526 1.215-2.526 2.8s.975 2.785 2.51 2.785a2.1 2.1 0 0 0 1.577-.639.54.54 0 0 1 .383-.185m4.336 1.6c-.705 0-1.691-.325-1.691-1.85v-4.325h-1.016a.406.406 0 0 1-.449-.357l-.003-.056a.41.41 0 0 1 .451-.431h1.016v-1.513c0-.473.322-.549.478-.549s.478.076.478.549v1.513h1.517a.41.41 0 0 1 .45.364q.003.034.002.067a.405.405 0 0 1-.392.418.4.4 0 0 1-.082-.006h-1.517v4.045c0 1.006.379 1.271.959 1.271a1.1 1.1 0 0 0 .41-.087.6.6 0 0 1 .197-.045.38.38 0 0 1 .381.376l-.002.04a.48.48 0 0 1-.326.427 2.4 2.4 0 0 1-.861.148m3.239.016c-.156 0-.482-.072-.482-.549v-6.054c0-.473.326-.545.482-.545s.478.072.478.545v6.054c0 .477-.303.549-.478.549m0-8.99a.71.71 0 0 1-.75-.672.71.71 0 0 1 .674-.748.71.71 0 0 1 .75.673l.001.037a.704.704 0 0 1-.675.711m5.923 2.632c-1.517 0-2.499 1.245-2.499 2.8s.975 2.785 2.499 2.785 2.51-1.23 2.51-2.785-.975-2.811-2.51-2.811zm0 6.432c-2.048 0-3.512-1.555-3.512-3.644s1.464-3.644 3.512-3.644 3.523 1.555 3.523 3.644-1.464 3.644-3.523 3.644m6.359-5.925h.027a2.56 2.56 0 0 1 2.256-1.362c1.68 0 2.51 1.135 2.51 2.857v3.806c0 .477-.322.549-.478.549s-.482-.072-.482-.549v-3.405c0-1.453-.409-2.429-1.79-2.429-1.016 0-2.002.859-2.002 2.709v3.11c0 .477-.326.549-.478.549s-.482-.072-.482-.549v-4.945l-.026-1.109a.443.443 0 0 1 .451-.518c.156 0 .451.057.463.518l.03.768zm9.788-.34a.425.425 0 1 1 0-.844h1.028V93.62c0-1.57.732-2.546 2.241-2.546.758 0 .804.295.804.473a.413.413 0 0 1-.391.434.4.4 0 0 1-.072-.002h-.379c-1.028 0-1.24.757-1.24 1.775v1.771h1.198a.425.425 0 1 1 0 .844h-1.195v5.641c0 .477-.326.549-.478.549s-.481-.072-.481-.549v-5.653h-1.035zm7.796-.167c-1.517 0-2.495 1.245-2.495 2.8s.971 2.785 2.495 2.785 2.51-1.23 2.51-2.785-.975-2.811-2.51-2.811zm0 6.432c-2.044 0-3.512-1.555-3.512-3.644s1.468-3.644 3.512-3.644 3.527 1.555 3.527 3.644-1.468 3.644-3.527 3.644m5.924-.075c-.156 0-.478-.072-.478-.549v-4.96l-.03-1.109a.443.443 0 0 1 .451-.518c.156 0 .451.057.466.518l.027.757h.03a2.34 2.34 0 0 1 2.112-1.362 1.1 1.1 0 0 1 .41.061.41.41 0 0 1 .269.397.46.46 0 0 1-.431.491.5.5 0 0 1-.092-.003h-.322c-1.016 0-1.934.757-1.934 2.618v3.11c0 .477-.322.549-.478.549m8.631-.591c0 .503-.337.59-.508.59s-.508-.087-.508-.59v-9.508c0-.503.338-.594.508-.594s.508.091.508.594z"/><g transform="translate(164.581 91.868)"><mask id="d" fill="#fff"><use xlink:href="#c"/></mask><path fill="#6d6e71" d="M4.926 10.087c-.197.545-.493.605-.721.605s-.523-.061-.72-.605L.072.844A1 1 0 0 1 0 .503.497.497 0 0 1 .489 0a.514.514 0 0 1 .512.401l3.201 8.812h.027L7.417.401A.51.51 0 0 1 7.91 0a.496.496 0 0 1 .508.484 1.1 1.1 0 0 1-.072.36z" mask="url(#d)"/></g><path fill="#6d6e71" d="M9.48 61.366c.205-.348.409-.424.573-.424a.68.68 0 0 1 .637.717l-.004.04a1.24 1.24 0 0 1-.163.575 21.04 21.04 0 0 0 0 19.417 1.2 1.2 0 0 1 .163.571.68.68 0 0 1-.601.754l-.032.003c-.163 0-.379-.076-.573-.424a22.32 22.32 0 0 1 0-21.211zm9.803 11.051c-.083-2.191-1.187-3.806-3.17-3.806-1.866 0-3.235 1.816-3.356 3.806zm-6.549 1.347c.042 2.338 1.536 4.23 3.5 4.23a3.39 3.39 0 0 0 2.761-1.513.66.66 0 0 1 .535-.325.68.68 0 0 1 .637.717l-.004.04a.97.97 0 0 1-.205.594 4.5 4.5 0 0 1-3.724 1.945c-2.844 0-4.952-2.615-4.952-6.126s2.108-6.122 4.831-6.122 4.581 2.27 4.581 5.698c0 .575-.246.874-.758.874l-7.201-.011zm15.328-5.153c-2.146 0-3.682 2.039-3.682 4.703s1.517 4.68 3.682 4.68c2.313 0 3.622-2.092 3.622-4.68s-1.312-4.703-3.622-4.703m.14 10.829a4.22 4.22 0 0 1-3.599-2.27h-.065v7.189c0 .798-.47.923-.694.923s-.713-.117-.713-.916v-16.13c0-.798.474-.923.698-.923s.694.125.694.923v1.267h.064a4.13 4.13 0 0 1 3.599-2.312c2.988 0 4.952 2.686 4.952 6.122s-1.949 6.126-4.937 6.126m10.13-.151c-1.024 0-2.454-.549-2.454-3.11V68.91h-1.475a.644.644 0 0 1-.655-.633l.003-.067a.65.65 0 0 1 .576-.719l.08-.004h1.475v-2.539c0-.794.47-.919.694-.919s.694.125.694.919v2.539h2.192a.65.65 0 0 1 .656.647l-.004.076a.643.643 0 0 1-.585.697l-.067.003h-2.196v6.81c0 1.691.573 2.142 1.392 2.142.207-.006.411-.058.595-.151a.8.8 0 0 1 .284-.076c.33 0 .554.276.554.7a.81.81 0 0 1-.47.719 3.1 3.1 0 0 1-1.289.235m4.236.026c-.224 0-.698-.125-.698-.923V68.237c0-.798.474-.923.698-.923s.694.125.694.923v10.155c0 .798-.47.923-.694.923m0-15.111a1.22 1.22 0 0 1-1.436-.956 1.221 1.221 0 1 1 2.395-.477q.024.118.024.237a1.117 1.117 0 0 1-.982 1.196m5.114 5.277h.042a3.68 3.68 0 0 1 3.273-2.27c2.434 0 3.64 1.915 3.64 4.801v6.398c0 .798-.47.923-.694.923s-.698-.125-.698-.923v-5.717c0-2.44-.592-4.082-2.598-4.082-1.471 0-2.905 1.442-2.905 4.54v5.225c0 .798-.47.923-.694.923s-.698-.125-.698-.923v-8.324l-.042-1.865c-.019-.757.451-.874.656-.874s.656.102.675.874l.042 1.294zm17.33 2.936c-.083-2.191-1.187-3.806-3.174-3.806-1.862 0-3.231 1.816-3.352 3.806zm-6.549 1.347c.042 2.338 1.536 4.23 3.5 4.23a3.39 3.39 0 0 0 2.761-1.513.66.66 0 0 1 .535-.325.68.68 0 0 1 .637.717l-.004.04a.97.97 0 0 1-.205.594 4.5 4.5 0 0 1-3.724 1.945c-2.844 0-4.952-2.615-4.952-6.126s2.108-6.122 4.827-6.122 4.585 2.27 4.585 5.698c0 .575-.246.874-.758.874zm9.795 5.377a.667.667 0 0 1-.652-.757 1.34 1.34 0 0 1 .284-.794l5.669-8.702h-5.028a.715.715 0 0 1 0-1.423h6.261a.667.667 0 0 1 .652.757 1.33 1.33 0 0 1-.284.795l-5.669 8.642h5.483a.663.663 0 0 1 .677.648l-.002.071a.67.67 0 0 1-.578.751 1 1 0 0 1-.097.006l-6.716.008zm17.398-2.566.042 1.869c0 .757-.451.87-.656.87s-.656-.102-.675-.87l-.042-1.298h-.042a3.68 3.68 0 0 1-3.273 2.293c-2.435 0-3.641-1.918-3.641-4.805v-6.398c0-.798.47-.923.694-.923s.698.125.698.923v5.721c0 2.437.592 4.082 2.598 4.082 1.471 0 2.905-1.445 2.905-4.54v-5.263c0-.798.47-.923.694-.923s.698.125.698.923zm3.129-6.522-.038-1.865c-.023-.757.447-.874.652-.874s.656.102.675.874l.042 1.294h.042a3.52 3.52 0 0 1 3.151-2.27c1.043 0 2.309.473 2.946 2.463.652-1.593 1.82-2.463 3.356-2.463 2.435 0 3.641 1.914 3.641 4.801v6.398c0 .798-.47.923-.694.923s-.698-.125-.698-.923v-5.717c0-2.44-.675-4.082-2.476-4.082-2.002 0-2.719 2.164-2.719 4.328v5.452c0 .798-.47.923-.698.923s-.694-.125-.694-.923v-6.054c0-2.27-.451-3.734-2.313-3.734-1.331 0-2.783 1.442-2.783 4.54v5.225c0 .798-.47.923-.694.923s-.698-.125-.698-.923zm23.12 3.261c-2.275 0-4.93.299-4.93 2.516 0 1.665 1.168 2.213 2.253 2.213 1.964 0 3.068-1.793 3.068-3.859v-.87zm1.782 4.73.038.473c0 .522-.284.798-.611.798-.228 0-.573-.125-.656-.848a11 11 0 0 1-.061-1.218h-.042c-.88 1.544-1.945 2.191-3.477 2.191-1.452 0-3.314-.946-3.314-3.538 0-3.583 3.254-3.908 6.75-3.908v-.378c0-2.017-.899-3.027-2.556-3.027a3.6 3.6 0 0 0-2.457.969.8.8 0 0 1-.489.223c-.307 0-.554-.272-.554-.696a.9.9 0 0 1 .265-.621 4.72 4.72 0 0 1 3.379-1.294c2.063 0 3.72 1.392 3.72 4.23v5.104a15 15 0 0 0 .064 1.54zm7.877-9.433c-2.15 0-3.682 2.039-3.682 4.703s1.517 4.68 3.682 4.68c2.313 0 3.622-2.092 3.622-4.68s-1.308-4.703-3.622-4.703m-4.911-7.544c0-.798.47-.919.698-.919s.694.121.694.919v8.437h.042a4.17 4.17 0 0 1 3.621-2.312c2.985 0 4.949 2.686 4.949 6.122s-1.964 6.126-4.949 6.126a4.23 4.23 0 0 1-3.621-2.27h-.042v1.218c0 .798-.47.923-.694.923s-.698-.125-.698-.923zm12.605 12.746a.65.65 0 0 1-.66-.643l.004-.08a.643.643 0 0 1 .589-.694q.033-.003.067-.002h3.561a.64.64 0 0 1 .655.625.4.4 0 0 1-.003.071.65.65 0 0 1-.576.719l-.076.004zm7.201-9.61a1.22 1.22 0 0 1-1.436-.956 1.221 1.221 0 1 1 2.395-.477q.024.118.024.237a1.117 1.117 0 0 1-.982 1.196zm-3.17 20.113c0-.424.224-.723.573-.723.182 0 .409.076.614.076 1.081 0 1.286-1.022 1.286-2.49V68.236c0-.798.474-.923.698-.923s.694.125.694.923v13.22c0 1.865-.55 3.659-2.719 3.659-.675 0-1.145-.185-1.145-.798zm8.202-20.113a1.22 1.22 0 0 1-1.436-.956 1.221 1.221 0 1 1 2.395-.477q.024.118.024.237a1.136 1.136 0 0 1-.982 1.196m-3.17 20.113c0-.424.224-.723.573-.723.186 0 .409.076.614.076 1.084 0 1.289-1.022 1.289-2.49V68.236c0-.798.47-.923.694-.923s.698.125.698.923v13.22c0 1.865-.553 3.659-2.723 3.659-.675 0-1.145-.185-1.145-.798m6.954-14.264-.038-1.865c-.023-.757.447-.874.652-.874s.656.102.675.874l.042 1.294h.042a3.52 3.52 0 0 1 3.151-2.27c1.043 0 2.313.473 2.946 2.463.652-1.593 1.82-2.463 3.356-2.463 2.435 0 3.641 1.914 3.641 4.801v6.398c0 .798-.47.923-.694.923s-.698-.125-.698-.923v-5.717c0-2.44-.675-4.082-2.476-4.082-2.002 0-2.719 2.164-2.719 4.328v5.452c0 .798-.47.923-.698.923s-.694-.125-.694-.923v-6.054c0-2.27-.451-3.734-2.313-3.734-1.331 0-2.783 1.442-2.783 4.54v5.225c0 .798-.47.923-.694.923s-.698-.125-.698-.923zm18.191 9.262c-.224 0-.694-.125-.694-.923v-8.324l-.042-1.865c-.023-.757.447-.874.652-.874s.656.102.675.874l.042 1.294h.042c.531-1.343 1.718-2.27 3.068-2.27a1.4 1.4 0 0 1 .595.098.71.71 0 0 1 .379.673.723.723 0 0 1-.618.815 1 1 0 0 1-.141.006c-.205 0-.33-.027-.47-.027-1.475 0-2.806 1.294-2.806 4.408v5.225c.011.764-.459.889-.683.889m6.421 3.262c-.205.348-.409.424-.573.424a.68.68 0 0 1-.636-.724l.003-.032a1.2 1.2 0 0 1 .163-.571 21.04 21.04 0 0 0 0-19.417 1.24 1.24 0 0 1-.163-.575.68.68 0 0 1 .593-.753l.04-.004c.163 0 .379.076.573.424a22.32 22.32 0 0 1 0 21.211v.019z"/><path fill="#c41748" d="M168.165 24.003c.36 0 .758-.095.758-.522s-.379-.484-.705-.484h-.58v1.018l.527-.011zm-1.138-1.169a.333.333 0 0 1 .379-.378h.868c.664 0 1.316.276 1.316 1.033a.94.94 0 0 1-.815.953l.758 1.135a.35.35 0 0 1 .068.208.31.31 0 0 1-.303.318.35.35 0 0 1-.319-.193l-.857-1.381h-.455v1.226a.318.318 0 0 1-.637.002v-.002zm1.233 4.052c1.466 0 2.654-1.186 2.654-2.648s-1.188-2.648-2.654-2.648-2.654 1.186-2.654 2.648 1.188 2.648 2.654 2.648m0-5.778c1.726.015 3.113 1.422 3.098 3.144s-1.426 3.106-3.151 3.091a3.12 3.12 0 0 1-3.098-3.106 3.137 3.137 0 0 1 3.144-3.129h.008z"/></g></svg>