<svg xmlns="http://www.w3.org/2000/svg" width="161" height="69" viewBox="0 0 161 69"><title>lundbeck-logo-footer-161-desktop</title><g fill="none"><path fill="#d37119" d="M126.92 1.32c1.222 1.366 1.467 3.105 1.711 4.968.123.87.612 1.739.979 2.484.244.993.489 2.111 1.59 2.732.244.373.488.87.977.994l.856.248h1.223c1.1 0 2.201 0 3.18-.497.366-.124.978 0 1.345-.372.611 0 1.467.372 1.834-.373.244-.248.611-.372.978-.372.611-.249 1.1-.621 1.834-.621 1.1-.497 2.08-.87 3.18-1.49.122 0 .244-.125.366 0a5.1 5.1 0 0 0 1.712-1.118c.856-.746 2.201-.497 3.057-1.242.367-.249.734 0 1.101-.125.734 0 1.1-.745 1.956-.62 1.101 0 2.324-.497 3.18.372q.55.559.733 1.118c.123.993-.733 1.738-.978 2.608-.489.993-1.834.993-2.079 2.111-.489.497-1.1.745-1.59 1.242-1.1.994-2.445 1.366-3.545 2.236-.49.496-1.1.993-1.835 1.242-.366.372-.611.745-.978 1.117-.978.621-2.2.746-2.935 1.863-.489.745-1.345.745-1.834 1.49-.611.249-1.1.746-1.345 1.367-.367.62-1.1.62-1.345 1.242-.245.372-.978.496-.734 1.117 0 .373-.244.621-.489.87 0 .248.122.372 0 .62v1.119c.245.248.734.248.856.62 0 .87 1.1.746 1.468 1.49.366.622.489 1.367.978 1.864.122.497.367.993.856 1.366.367.62.733 1.118 1.1 1.739.245.248.612.372.856.62.978.994 1.345 2.112 2.201 3.106.367.496.979.869 1.1 1.614.368.621.735 1.118.857 1.739.367.248.611.62.611.993.856.497.734 1.49 1.345 2.112.49.496.856.993.979 1.614.733.745 1.1 1.739.978 2.857 0 .87.856 1.49.734 2.36.244.496.244 1.117 0 1.49-.367.248-.245.87-.49 1.242-.366.745-.978 1.49-1.834 1.614q-1.1 0-1.834.373c-.856 0-1.467-.373-2.201-.745-.49-.249-.856-.994-1.345-1.118-.367-.373-.49-.87-.856-1.118-.245-.497-.856-.745-1.1-1.242-.857-.87-1.224-1.987-2.324-2.732-.734-.745-1.1-1.739-1.834-2.484-.734-.621-1.468-1.366-1.835-2.236-.733-.869-1.834-1.366-2.445-2.36-.245-.248-.49-.372-.734-.496-.489-.87-1.345-1.366-1.956-1.987-.245 0-.367-.124-.612-.249-.489-.745-1.345-.745-1.956-1.366-.245 0-.49-.248-.612-.372-.489 0-1.1 0-1.345-.621-.244 0-.611 0-.611-.249-.245 0-.367.125-.49.249-.733-.497-.978.745-1.711.745-.367 0-.612.124-.978.248-.49.249-.856.621-1.346.746-.366.248-.489.62-.611.993-.611 1.118-1.345 2.236-2.446 2.98-.611.87-1.712 1.491-1.956 2.485-.245.62-.856 1.242-1.223 1.738-.244.373-.611.373-.978.621-.612 1.49-1.957 2.484-2.935 3.85l-.489.373c0 .248 0 .621-.245.745-.978 1.242-2.2 2.36-3.057 3.726-.366.248-.856.497-.733.994-.123.745-.856 1.242-1.345 1.738-.123.621-.612.994-.979 1.49-.611.746-1.1 1.74-2.078 2.112-.245.497-1.101.621-1.101 1.242-.367.745-.856 1.49-1.59 1.863-.611.497-1.222.993-1.834 1.242-.367-.124-.611.372-.856.372-.734-.372-1.345.621-2.079 0-.366 0-.611-.248-.978-.372-.856-.994-.856-2.608-.367-3.85 0-.621.49-1.118.612-1.739 0-.373.489-.745.733-1.118.123-.372.245-.745.49-.993.244-.497.366-.994.61-1.49.245-.497.245-1.118.612-1.615.734-.87 1.1-1.863 1.468-2.857.367-.496.733-.869 1.1-1.366.49-1.366 1.834-2.36 2.69-3.726.612-.62.979-1.366 1.223-2.111.612-.994 1.712-1.615 1.957-2.732.733-.994 1.59-1.987 2.079-3.105.244-.497.61-.87.61-1.366 0-1.118.98-1.863 1.224-2.981.489-1.242.611-2.484 1.59-3.477 0-.746.733-1.242.61-1.988-.121-.372-.488-.372-.733-.745-.489-.497-1.1-.87-1.834-.87-.245 0-.49 0-.734-.123-.978-.373-2.079-.621-3.057-.994-.489-.372-1.223-.62-1.467-1.242l-.612-.497c-1.1.125-1.956-.745-3.057-.745-1.222-.372-2.568-.62-3.79-1.118-.612-.745-1.835-.496-2.324-1.49-.489-.248-1.1-.372-1.223-.993-.122-.249 0-.497 0-.746.245-.496.734-.745 1.101-1.242.367-.372.856-.248 1.467-.248 1.468-.124 3.057-.248 4.403-.745.61 0 1.467-.124 2.078 0h4.036c.733 0 1.467 0 2.078-.248.856.248 1.835 0 2.568-.373.734-.248 1.712-.373 2.446-.621.367-.621.978-.87 1.59-.994.244-.496.733-.62 1.222-.869.245-.497.856-.87 1.1-1.242 0-.373 0-.87.245-1.242.979-.745.49-1.987 1.101-2.856.245-.746.367-1.49.856-2.112.245-.248 0-.745 0-1.117.245-.621.856-.994 1.1-1.615v-.994c.245-1.117.612-2.235 1.59-2.856.49-.373.978-.994 1.712-.745.367 0 .856 0 1.223.248z"/><path fill="#524c3d" d="M62.966 36.095s1.1 0 1.1-1.242c0 0 0-2.732-2.445-2.732 0 0-2.446 0-4.035 2.856h-3.18s-.122-1.49-1.222-1.242c0 0-1.712.497-.49 2.111 0 0 .123.249.49.373 0 0 .978 1.863-.612 2.732 0 0-1.712 1.118-1.59-2.732 0 0 0-10.06-.244-12.42 0 0 0-1.241-1.467-1.987 0 0-.612-.372-.612.373v15.773s-.122 1.242.856 1.863c0 0 2.69 2.235 4.891-.745 0 0 .856-1.367.245-2.981h2.568c0 .248 0 .497-.122.87 0 0-.367 3.725 3.179 3.6 0 0 2.323 0 3.424-2.607 0 0 .244-.994-.734-.124 0 0-1.345 2.235-3.057.993 0 0-.856-.87-.611-2.608h3.79zm-2.935-1.987s.979-1.366 1.835-1.118c0 0 1.1.497.489 1.739 0 0 0 .496-2.446.372h-.367c0-.372.245-.62.49-.993M74.95 21.564c-.49 0-1.834 0-1.957 1.863v10.805c-.367 1.118-1.712 3.974-3.668 4.595 0 0-2.568.87-2.201-2.36 0 0 0-1.738 1.467-3.353 0 0 1.1-.993 1.223.497v.497s-.611.248-.367.87c0 0 .49 1.241 1.223.744 0 0 .244-.248.244-.497.123-.745.367-2.11-.61-2.856 0 0-2.202-1.863-4.77 1.615 0 0-2.446 4.222 1.1 5.837 0 0 3.547 1.366 6.482-3.23v3.106s-.123.248.61.248c0 0 1.224 0 1.346-.745v-2.236c0 .124.367.373.734.497 0 0 1.1.373 2.323-.124.978.62.856 2.111.856 2.111v15.4c0 1.863 1.712 2.608 1.712 2.608.611.373.611-.372.611-.372l-.244-16.27c0-2.608-1.345-3.601-2.201-3.85.244-.124.489-.372.733-.62 0 0 2.568-2.609-.856-4.348 0 0-1.711-.745-3.668 1.118V21.688zm1.467 14.655s-.734 0-1.1.248c-.123 0-.245.125-.245.249v-2.111c.734-.621 1.467-1.118 2.079-1.118 0 0 1.345 0 1.345 1.366 0 0 0 1.614-1.957 1.366zM46.336 38.33c-.122-.869 0-14.406 0-14.406s0-1.118-.856-1.739c0 0-.734-.745-1.1 0v11.053s-2.935-2.111-5.748.994c0 0-1.467 1.739-1.1 3.602-.367.372-.979.993-1.223.372 0 0-.245-1.863-1.345-1.863 0 0-.49-.248-1.468 1.118 0 0-.489.621-.489-.373 0 0 0-1.987-1.467-1.863 0 0-.856 0-2.446 2.484 0 0-.856.994-1.1-.248 0 0 0-3.85-1.712-2.36 0 0-1.468 1.615-2.446 2.857 0 0-.734.62-.856-.497 0 0 0-4.471-1.345-4.471 0 0-1.223-.373-2.201 4.098 0 0-.245 2.733-2.201 2.36 0 0-3.546-.62-7.215-.87.123-.248.245-.496.367-.869 0 0 1.1-2.484.978-5.961 0 0 0-17.512-.733-19.25 0 0-.245-1.118-1.1-.621 0 0-1.224 0-1.101 7.824 0 0 .122 12.171.367 14.904 0 0 .244 2.608-.49 3.974-1.834 0-3.423 0-4.646.497 0 0-1.835.993 0 1.738 0 0 2.934.745 5.013-.745 1.223.373 3.913.621 9.05.994 1.833 0 2.2-1.615 2.2-1.615.856-2.111.978-.372.978-.372 0 2.11.734 2.235.734 2.235.856.621 2.935-1.987 2.935-1.987 1.223-1.863 1.223-.87 1.223-.87 0 1.863.978 2.36.978 2.36 1.345.497 2.812-1.987 2.812-1.987 1.1-1.987 1.223-1.118 1.223-1.118v2.484c.367 1.863 2.568-.62 2.568-.62.611-.994.734-.622.734-.622.367 1.49 1.345 1.49 1.345 1.49.856 0 1.712-.993 2.079-1.614 0 .249.244.497.489.621 0 0 1.834 2.236 4.28.621 0 0 .978-.745 1.834-2.111v1.739s.244 1.366 1.467.372c0 0 .367 0 .367-.87v-.869zm-3.302-.745c-2.568 2.236-3.301 0-3.301 0-.367-3.229 3.179-3.601 3.179-3.601.611 0 1.1.248 1.467.496v1.242c-.856 1.615-1.467 1.987-1.467 1.987zm-13.817 8.694s10.76-.497 30.814 0c0 0 1.346 0 1.957.87 0 0-7.337.372-31.06 1.365 0 0-4.769 0-3.057-1.738 0 0 .49-.373 1.346-.497"/><g fill="#b83e17"><path d="M99.65 65.902c0-.125.245-.125 0-.249-.366 0-.733.745-.855 0h-.49c-.122 0-.122.249-.366.249-.49.248-.49-.497-.856-.497v.372h-.123c0-.124-.366-.248-.244-.496.122 0 0-.249.122-.249 0 0-.244 0-.244-.248 0-.373.122-.745 0-1.118v-.497c.244 0 0-.248.244-.372 0-.249-.122-.497 0-.87.122-.124.245-.372.611-.248.245 0 0-.248 0-.373.367-.248 0-.745.245-1.117.122-.249.122-.497.49-.621h.244c.367-.249 0-.497.367-.745-.123-.249 0-.373 0-.621 0 0 .244-.249.366-.249 0 .124.245 0 .367.249 0-.125.245 0 .245-.125.244 0 .367-.124.489-.248 0-.373-.49-.373-.245-.621 0-.124 0-.248.245-.373.245 0 .245.249.367.249.244 0 0-.249 0-.373-.245 0-.49-.248-.49-.62 0-.125 0-.498.245-.622v-.372c.367-.249.734-.124.856-.497h.122c0 .248-.122.373 0 .62v.125s.123-.124.245-.124a1.08 1.08 0 0 1 0-.87s0-.124-.122 0h-.245c-.122 0-.122-.124-.122-.248.244-.124.367-.62.734-.372h.122v-.249c-.245 0 0-.372-.245-.248-.122-.124 0-.373 0-.497.245-.124.123-.373.367-.373.367-.248.367-.62.367-.993 0-.249.245-.373.49-.497h.244c.367-.124-.123-.248 0-.497.122-.124.367-.496.611-.496 0 .124.245.248.245.496 0 .249-.245 0-.367.249 0 0 .244.248.367.124.122 0 .244-.249.244-.373-.122-.248-.244-.62-.244-.87.122-.247.489-.372.489-.62.244-.124.611-.248.734-.621 0-.248.366 0 .366-.248-.122 0 0-.249-.244-.373 0-.373.122-.745.489-.994.244 0 .367 0 .489.249.122 0 0-.249.245-.249 0-.496 0-.993.366-1.242.123-.248.612 0 .612-.496v-.249h.244c-.122.373.245.621-.122.87h-.244c.122.248.366-.125.611 0 .122 0 .245 0 .367-.125 0 0 .122-.124 0-.248h-.245c-.122-.124 0-.373-.122-.497 0-.124 0-.124.245-.248.244 0 .366-.248.489-.373h-.245v-.248c0-.124 0 0 .122-.124 0 0 .245-.249.367-.249 0 0 .123.125.123.249 0 .248-.49.124-.367.372 0 0 .244 0 .367-.124v-.248c0-.249-.123-.621 0-.87.244-.124.489-.372.61-.62.123-.249.368 0 .49-.249h-.367c-.244-.373.245-.497.122-.87.123 0 .367-.496.612-.248.489-.372.367-.87.856-1.242l.367-.372c0-.124 0-.124-.123-.249-.122 0-.366.125-.489 0 0-.124-.122-.372 0-.62 0 0 .245 0 .245-.249q0-.372.367-.745s.122 0 .244-.124c.123 0 .367.124.367.372 0 .249-.367.373-.489.621v.249c.245-.125.122-.373.367-.497v-.745c-.122-.125-.49-.249-.367-.497 0-.124 0-.249.245-.373h.122v.249c0-.125 0-.373.122-.497.122 0 .245-.249.49-.249.244-.124.488-.372.488-.62.245-.249 0-.622-.244-.87.122-.248 0-.745.244-.87 0-.248 0-.372.123-.62.122 0 .366-.249.489 0 .122.372 0 .745-.245 1.118 0 .124 0 .248.122.372.123 0 0-.248.123-.248 0 0 .244-.124.244-.249v-.496c-.244 0 0-.373-.244-.621 0-.373-.245-.621-.245-.994-.122-.124-.122-.373 0-.621 0-.497.734 0 .612-.621 0-.248-.245-.248-.367-.373 0-.124-.245-.248-.245-.496 0 0 .245 0 .122-.125 0-.124-.122-.248-.244-.372-.367-.124-.611.248-.978 0 0 0-.245 0-.367-.248-.122-.249.244-.373 0-.621-.122 0-.367.124-.612 0-.122 0-.244 0-.366.124h-.612c-.489-.249-1.1 0-1.467-.621-.245 0-.49-.124-.734-.249-.244-.248.245-.496 0-.745-.244-.372-.489.124-.734 0 0 0 0-.248-.244-.372-.245 0-.612.248-.978 0 0-.125-.245-.373-.245-.621-.245-.497-.856.248-1.1-.373-.367 0-.49.373-.856.248-.245 0-.49-.372-.856-.248-.367 0-.612-.248-.979-.248s-.122-.746-.611-.497c-.245.248-.734.248-1.1.124-.245-.248-.245-.745-.734-.62-.367.247-1.1.372-1.59.247-.122-.372-.734-.248-.734-.62 0-.249-.244-.249-.367-.249h-.366c0-.248-.367-.372-.612-.497-.244.125-.489 0-.489-.248s-.122-.497-.367-.497v-.497c.245-.372.367.249.612.125 0 .372.611.372.489.869.122.124.367.497.611.373-.489-.125-.244-.746-.611-.87-.49 0-.367-.62-.856-.62 0 0 0-.25-.245-.125-.122 0-.244.373-.489.248-.122 0 0-.372 0-.496 0-.249.367-.125.49-.249.244 0 0-.248 0-.372.122 0 .244-.249.366-.373.245 0 .49.248.734 0 .244 0 .367-.124.489-.248.611-.249 1.345-.497 1.956-.125.49 0 1.101-.496 1.59 0 .245 0 .367 0 .367.249v.248c.49 0 .49-.62.978-.62.367 0 .734-.25.978.123.734 0 .979-.869 1.712-.745.49 0 .856.497 1.345.124.245-.124.612-.248.856-.124.245 0 .367.124.49.373 0 0 0 .248.122.248.611.249.978-.497 1.59-.248.489 0 .366.87.855.248 0-.248 0-.497.245-.497.367 0 .734-.124 1.1 0 .979 0 1.59-.993 2.446-1.241.734 0 1.345 0 1.834-.746.123-.496 0-1.117.612-1.49.367-.248 1.1 0 1.345-.373 0-.248-.49-.248-.367-.62.122-.249.367-.249.611-.125 0 .124.245.249.367.249.123-.249-.122-.497 0-.746.123-.372.49-.869.979-.869.122 0 .244-.248.122-.497-.122-.248-.245-.372-.245-.62 0-.497.734-.746.49-1.367 0-.745.244-1.49.733-2.111 0-.621 0-1.242.367-1.739.49-.497.367-1.242.734-1.739q0-1.118.366-2.235c.367-.497.856-.745.856-1.366.49-.373.979-.87 1.468-1.118.489 0 .856.373 1.345.248.244 0 .489.125.611.373 0 .248.245.248.245.497v1.242s.244.124.367.248c.244.497-.49.497-.245.994.367.372.245.745.245 1.242l-.123.124s.245 0 .367.248c0-.248.123-.248.367-.372.122 0 .245 0 .245.124 0 .248 0 .372-.123.497h-.366c.122.62-.734.62-.49 1.117.245 0 .367 0 .49.249v.248s.122-.372.366-.248c.123 0 0 .248 0 .248s-.244.249-.366 0c0 .373-.49.249-.612.621.367 0 .49-.248.734-.497.367 0 .489-.62.978-.248.245.124 0 .87.367.745.49 0 .49.621.611.994-.244.248-.122.496 0 .745.123.248.49.124.612.372.367 0 0 0 .122.125v.993c.367 0 .734 0 .978.249 0 0 .123.124.245.124v.497c0 .248-.49.248-.367.496.611 0 .367-1.117 1.1-.869.245.248.612.745.979.497.122-.124.367-.373.489-.373.367.124.856.249 1.1 0 .367 0 .734.249 1.101 0 .367-.248.978-.497 1.345-.248.611 0 1.1-.497 1.712-.621.245.248.49 0 .734.248.611-.248.489-.745.978-.62.245-.25.611.372.49-.125.121 0 .244-.124.366 0v.248c.245 0 .367-.372.611-.496.123 0 .367-.249.612 0 0 .248.244 0 .244.248.245 0 .123-.373.245-.621q0-.186.367-.373c.122 0 .367 0 .244.125a1.7 1.7 0 0 1-.367.496c.123 0 .245-.248.49-.248.489-.248.366-1.118.978-.87 0 0 .122.25.367.25.244 0 .122-.622.611-.498.122 0 0 .373.245.373 0 0 .244 0 .366-.124 0-.249 0-.621.367-.746h.612q.366-.558 1.1-.372c0-.373.367-.373.367-.621h.367c.245-.124 0-.621.367-.621.244.248.367-.248.611 0 0 .124-.122.124-.122.373.122 0 .367 0 .367-.125 0-.372.856-.62 1.223-.745.489-.248.978-.248 1.467-.497.245 0 .49.249.856.125.244-.249.489-.249.856-.249s.489.621.856.373c0 0 .244 0 .367.248 0 .249.244.249.367.497 0 0 0 .248-.123.373-.122 0-.489.248-.611.372.122.249.367 0 .611 0 0 0 .123-.497.367-.497.612.497-.611.87.122 1.242.245.124 0 .497 0 .621 0 .249-.366.249-.244.497 0 0-.245.373-.245.621 0 .124-.244.248-.367.248.123 0 .123.249 0 .373v-.248s.367-.125.367-.249c0 0-.611 0-.611.249 0 0 .367.248.244.372 0 0-.244.373-.366.373h-.367c0 .87-.612.497-.979.993-.366.373-.855-.372-1.222.125-.245.372-.49.496-.856.62-.245.125 0 .497-.245.746-.367.496-1.1-.249-1.345.372 0 0 .245 0 .245.124a.69.69 0 0 1-.367.621c-.245 0-.49.249-.612.373-.244.124-.489 0-.611.248-.245.249-1.1-.124-.856.621-.122.249-.49.249-.49.621-.121.125-.366.249-.61.125l-.245-.249s-.245 0-.245.124c0 .249.123.373 0 .621-.367.249-.733.497-1.222.249-.245 0-.245-.497-.612-.373v.249s.245.248.122.372c-.122 0-.244.249-.366.249 0 0-.123-.249 0-.373h-.245c0 .124-.49.248-.245.497.123 0 0 .248 0 .248-.244.497-.856.124-1.222.497 0 .372-.367.372-.612.62-.367.125-.733-.248-.978 0h-.367c-.244.25.245.622-.244.746h-.245v.248h.49v.125c-.123 0 0 .248-.245.372-.367 0-.612.373-.979 0v.249l.245.248c0 .124 0 .497-.245.497-.244 0-.367.497-.489.248-.122-.124.245-.248 0-.248-.122 0-.122.497-.367.372-.122-.124 0-.372-.122-.496v.496c.122.125.245.373.122.621 0 .125-.122.249-.244.373-.245.124-.612-.248-.612.124-.244.124-.367-.248-.611 0-.367 0 0-.372-.245-.372-.122 0 0-.373-.122-.497.245 0 .367.248.611.248h.49c.122 0 .244-.248.489-.372-.367 0-.49-.249-.856-.373-.123-.497-.978-.124-.734-.745-.244-.124-.611 0-.856 0 0 .248.367.62.367.993 0 .125-.49.125-.245.373 0 0 0 .124-.122.248h-.122c0 .125 0 .497-.245.497-.122 0-.367 0-.367.124 0 .373.367 0 .49.125.244 0 .244.248.366.372 0 .248-.244.373 0 .621h.367v.497c.367.248.856.62.856 1.118 0 .124-.122.372-.244.496l-.245.249c.122 0 .49-.124.611.124 0 .248-.855.994-.61 1.118.244 0 .488 0 .61.372.123.125 0 .373.245.497h.611c.123.124 0 .248 0 .373 0 .124-.122.496.123.496.244 0 .611-.124.733.249 0 .372.245.87.734.993.245.125-.244.746.245.373 0 0 .244 0 .244.248v.249c.612 0 .367.87.979.745.122 0 .244.248.244.497 0 0 0 .248-.122.372.244.249.611.249.611.621h.245c.122 0 .122.249 0 .373h-.123v-.249c-.366.249-.61.497-.489.87 0 .248.367.372.49.372.244 0 .489-.248.733-.124.245.249.734.373.612.745.122-.248 0 .746 0 .621v-.248h.489c.244.373.611.248.367.994 0 0 .61-.249.733-.125.245.249.49.497.367.87 0 .124-.244.248-.122.497.244.248.856-.87 1.1-.621 0 .372.49 0 .734.248.245.124 0 .497.245.745 0 .124-.49.87-.612.373-.244-.125-.367-.497-.489-.745l-.245.248c.123.497.123.745.245 1.242 0 0 .367-.497.49-.249v1.242c0 .249.244 0 .366 0 .245.125.245.373.367.621v.373h.367c0 .248.244.373.367.497 0 .124 0 .248-.245.372-.245 0-.367 0-.367-.248v.248c.245.125.49.373.856 0 .122 0 .245.125.245.373 0 .373-.734.497-.245.87 0-.125 0-.373.122-.373.245 0 .49.372.612.62 0 .25.244.497.122.746 0 0 .245 0 .367.248 0 .124 0 .249-.245.249h-.244c0 .124.122.248.244.372 0 0 .245 0 .245.249 0 .124-.245.372-.367.372.611 0 0 1.118.734.621.122 0 .244.124.244.249 0 .248-.244.62 0 .869.123 0 .367 0 .367.248v.746c.245.124.734.248.734.62.244 0 .367.249.489.373 0 .373 0-.497.611 0 0 .248 0 .621-.122.745-.122 0-.244.249-.367.124v.249c.245.248.49.497.367.993 0 .249-.367.373-.367.746 0 .248-.244.496-.367.62-.244 0-.244.249-.489.249-.244.248.123.87-.367.993-.489.373-.978 0-1.59.249-.121 0-.366 0-.488-.124v-.249c-.367.124-.612 0-.734 0-.245-.124 0-.496-.367-.496v.124c-.122 0-.244-.249-.367-.124-.367-.249-.367-.746-.367-1.118 0-.124-.122-.124-.244-.124-.245-.249-.49-.373-.612-.746v-.372h.367c0 .372 0 .62.245.87 0-.125-.245-.25 0-.373.122 0 .122-.125.122-.249-.367 0-.122-.745-.611-.497 0 0-.123-.248-.245-.124v.249h-.244v-.125s0-.124.122-.248v-.248c-.122 0-.49.248-.367-.125.245 0 0-.248 0-.372-.244-.249-.49-.497-.367-.745h-.122s0 .248-.367.124c0-.249-.611-.621-.244-.87 0 0 .244-.248 0-.372-.123-.124-.245 0-.49 0-.366 0-.122-.621-.489-.497-.122 0-.244 0-.367-.124 0-.248 0-.497-.366-.497 0 0-.367 0-.367.124.122.125.489 0 .489.249 0 0 .122 0 .122.248 0 0-.122.124-.122.249h-.367c0-.249-.367-.249-.245-.621-.244-.249-.244-.621-.489-.746 0-.248 0-.62-.366-.745h-.245c0-.248 0-.372-.122-.497h-.612c-.122-.248-.489-.372-.489-.62-.367 0-.611-.373-.734-.746-.122-.248 0-.87-.366-.87-.123 0-.245.125-.367 0-.123-.247-.49-.247-.612-.496 0-.372 0-.62.123-.87-.245 0-.245-.372-.49-.372-.244 0-.366.249-.61.249-.123-.125-.49-.249-.368-.497 0 0 0-.124-.122-.124v-.497s-.122-.249-.245-.249c0 0 .123-.372 0-.372 0 .372-.366 0-.611.372-.245 0-.367-.248-.49-.372v-.249c0-.124.245 0 .245 0 0-.124.367 0 .367-.248-.122-.248-.367 0-.489 0v.124c-.122 0-.244-.248-.489-.248-.245-.249-.245.372-.49 0-.244-.124-.244-.497-.366-.621-.245.124-.49 0-.734 0-.122 0 0-.249-.122-.373 0-.248.245-.248 0-.496h-.611c-.245 0-.123-.373-.245-.497v-.249h-.244s0 .249-.123.373c-.122 0-.244 0-.367-.124 0-.249 0-.497-.244-.621 0 0-.122 0 0-.124-.245 0-.245-.249-.49-.125-.244 0 0 .125-.122.249 0 0-.244 0-.244-.124.122-.249 0-.373-.245-.497v-.373c0-.124-.122 0-.244-.124.122 0 .122.248.244.373v.248c-.489 0-.733-.373-1.222-.124-.245 0-.49.372-.49 0 0-.124-.122-.124-.244 0v.372c-.245 0-.49.621-.612.249v-.249c-.244 0-.366.497-.733.249-.367 0 0 .497-.367.497-.122.248-.367.124-.612.124.123 0 0 .248.245.372 0 .125 0 .249-.245.373-.122-.124-.366 0-.366-.124 0 0 .244 0 .244-.124-.489 0-.856.496-1.345 0 0-.125-.244 0-.367 0-.367 0-.367.496-.367.745.245 0 .123-.249.245-.373.122 0 .122-.248.367-.248.244 0 0 .372.122.496 0 .125 0 .249-.122.497-.245 0-.49.373-.734.249-.244 0-.122-.497-.367-.125 0 .249.367.249.245.497h.367c.244 0 0 .249 0 .249-.123 0-.245.248-.367.248v-.248c-.245 0-.367.248-.49.372.245 0 .245.373 0 .497 0 0-.122.248-.244.124h-.122c-.245.124 0 .373 0 .621 0 .124 0 .249-.245.249-.244 0-.611-.373-.733 0-.245 0-.612-.249-.734.248v.124c.122 0 .245-.248.367 0 0 .373-.245.249-.367.497-.122-.124-.367 0-.49-.248 0 0 .123-.125 0-.249h-.366c0-.124-.245 0-.367 0l-.611.621v.124c.244 0 .367-.62.611-.248 0 .124.367 0 .49 0 0 0 0 .248-.123.248h-.245c0 .249-.244.125-.366.249h-.367v.248c0 .124.244 0 .244.124s0 .497-.244.497h-.245v-.248c0 .248-.367.496 0 .745v.62h-.367v.25c-.122.123-.489 0-.489.372-.244 0-.367.497-.489.372 0-.372.245-.62.122-.869 0 0 .367 0 .367-.248h-.489c-.122.248 0 .745-.367.745-.244 0-.244-.124-.367-.124-.489.248 0 .869-.611.993-.245.124-.49-.248-.734 0-.122 0-.367-.124-.367 0 .123.249-.122.497 0 .621.123 0 .367 0 .49-.248v-.373h.489c.367 0 .367-.372.611-.248 0 .372-.367.497-.244.87 0 .123-.123.372-.367.372h-.245c-.244.248 0 .62-.244.87-.123.248-.367.248-.612.123h-.244c0 .373 0 .994-.49 1.118-.244 0-.366-.124-.489-.248-.122.124-.122.496-.489.496v.249c-.122 0-.244.372-.489 0 0 .124-.489.248-.244.62 0 0 0 .125.122 0v-.248c.244-.124.244-.372.611-.372.123 0 .367.248.245.497-.122.248-.612.248-.49.496 0 0-.122.249-.244.373h-.367c-.122 0 0 .248 0 .373.123 0 .123.248.123.372-.123.124 0 .497-.367.373 0 0 0-.124-.245-.124v.496c0 .249.367.373.245.746-.123 0-.367.372-.612.248 0 .745-.856 1.118-.978 1.739-.245.372-.978 0-.856.62-.244.622-1.1.125-1.1.87-.123.373-.612.124-.856.373 0 0 .244 0 0 .248 0 .124-.245.248-.367.248v-.248c0-.248.367 0 .367-.248h-.367c-.245.248 0 .745-.49.993-.122 0-.244 0-.366-.248v-.373c-.123 0-.245 0-.245.124v.497c-.367.373-.733.621-1.223.497a.69.69 0 0 0-.366.62c.244.25 0 .622.244.87v.621c0 .373-.489.249-.611.249.244 0 .122.372.122.62-.122.125-.367.249-.611.125 0 0-.123 0-.245-.124 0 .124-.367.248-.122.496.122 0 .244.373 0 .497h-.367c0 .249 0 .621-.245.621h-.733c-.367 0-.367.497-.612.745v.124c.122-.248.49 0 .367-.496 0-.124.245-.373.49-.373 0 0 .121.249 0 .373-.245 0-.123.248-.245.372h.122c0 .249 0 .373-.245.497-.122 0-.122-.248-.244-.124 0 0-.245.124-.245 0v-.249c-.244.249-.489.249-.611 0h-.245s0-.124-.244 0c0 .125-.123.373-.367.497.244.124.122-.372.489-.124 0 .124.122.373 0 .497s-.367 0-.611 0zm-2.323-4.347s.122-.249.122-.373c0 0 0-.248-.122-.124 0 0-.244.124-.244.248 0 0 0 .249.244.249m7.215-.87v-.124zm.122-.372c.122 0 .245-.248.245-.373 0-.124 0-.248-.245-.248-.244 0-.122.248-.122.497 0 0 0 .248.244.248zm-5.013-2.36c0-.248.244-.372.244-.62-.122-.125 0-.373-.244-.622h-.367c-.123.249 0 .373 0 .621-.123.124-.245.249-.123.497 0 0 .245.124.367 0zm6.725-.372c0-.249.245-.125.367-.249-.367-.248.244-.62 0-.87-.367 0-.245.373-.367.498 0 .248 0 .496.122.62zm2.323-1.863c.123 0 .245-.125.367-.249v-.124s-.122-.248 0-.372c0 0 .245-.125 0-.249-.244.373-.611.373-.856.745.123 0 .367.249.367.373zm43.166-.249c.244 0 .367-.248.489-.248 0-.248.367-.373 0-.621-.122 0-.122.248-.367.248 0 .249-.245 0-.367.249v.496zm-41.331-.87v-.247s-.123-.249-.245 0c0 .124.245.124.245.248m42.554-2.11v-.373s0-.248-.245-.248c-.122 0-.245.124-.122.372 0 0 .122.249.367.249m-7.826-1.863c-.367-.249.122-.373 0-.621h-.245c0-.124 0 0 0 0 0 .248 0 .496.245.62m-2.324-2.608v-.373c0-.124 0-.373-.244-.248l-.245.248v.497s.367-.249.245-.124zm-1.59-.994v-.248s-.244 0-.244.124.245.248.367 0zm.367-.497v-.372s-.244-.249-.244-.125c0 .249 0 .497.244.497m-26.412-.745c.122-.248.489-.248.611-.497h-.122c-.245 0 0-.248-.123-.372-.122-.249-.366 0-.489.124.123.248 0 .62 0 .87zm2.323-.497s0-.248-.122-.124zm31.06 1.987c0-.372 0-.62-.367-.869.244.373-.367.497 0 .87 0 .372.366 0 .489 0zm-40.598-2.98s0-.249-.245-.124c0 .248.245.248.245.124m7.948-.249c.123 0 .245-.248.245-.372 0 0 0-.249-.245-.124-.244 0-.489.372-.367.62.123 0 .245-.124.367 0zm.979-.248c.244-.124.366-.497.61-.497 0 0 .123-.124 0-.248-.244 0-.61 0-.855.248v.373zm20.91-.248s0-.249.122-.373c0-.124-.122-.497-.49-.373 0 .249-.244.249 0 .497.245 0 .245.249.368.249m9.782.496c.245-.124-.122-.248-.244-.372 0-.124 0-.497-.123-.497v.62s.245.25.367.25m.245-.496v-.497s-.245.124-.245.248c0 0 .122.249.245.249m-11.617-1.74h.245zm-.245-.123v-.249h-.244s.122.249.244.249m-16.263.248c.122-.124.367-.124.49-.373.366 0 .244-.124.244-.248v-.373c-.367.497-.734 0-.856.87h.122zm15.04-1.118s.245 0 .245-.248h-.244s0-.249-.245 0c0 .124.122.248.245.372zm-24.211-.372c.244 0 0-.249.122-.497h-.122c-.122 0-.245.248-.245.372 0 0 .123.125.245.125m.734-.249c.122-.124.244-.497.244-.62 0 0-.122.372-.367.248 0 .124 0 .372.123.372m19.32-1.987c0 .124.122 0 .245 0v-.248c-.123 0 0 0-.245-.124h-.245v.248c0 .124.123.248.245.373zm-18.098-1.366s.245-.248.49-.248c.122 0 .122-.249.122-.373h-.367c0 .248-.367.248-.245.497zm1.223-1.118c.122 0 .367 0 .367-.248 0-.249-.122-.621-.367-.745.245.248 0 .496.122.62 0 0-.122.25-.244.373zm-.978-.248c0-.124.245-.249.245-.497s.122-.373 0-.62h-.367c0 .372-.367.372-.245.744 0 0 .122.249.245.249zm24.823-3.726s.49-.621.611-.621c0-.124-.61 0-.61-.248l-.368.248c0 .124.122.497.367.621m-24.212-2.36s.245-.124.367-.248v-.124c-.122.124-.367 0-.489 0 0 0-.122 0-.122.248 0 .124.244.248.367.248zm-13.695-5.464c.367 0 .611-.249.856-.373h-.245c-.244 0-.489.124-.611 0 0-.497-.612 0-.856-.248.244 0 .367.124.611.248 0 0 0 .249.123.249zm37.296-.87c-.123 0-.245-.372-.49-.372-.122.248 0 .372-.122.62.245.25.367-.123.612-.248m2.078-1.117c0-.125.367.248.367.124 0 0 .123.124.245 0 .122-.249-.122-.745-.245-.745-.122 0-.367.496-.367.62m2.69-.621c.49 0 .367-.621.49-.87-.245-.124-.49 0-.734.249v.62h.367zm-37.54-1.49s.123-.125 0-.25c0 0 0-.123-.122-.248h-.49c-.121.249.245.497.612.373zm41.21-2.857-.245-.497c-.123 0-.245.621-.367.745.244.124.856.249.611-.248m5.99-2.484s-.244 0-.366-.124c0 .248.367.372.367.124m1.224-.249c.611 0 .367-.62.244-.496 0-.125-.244 0-.367 0-.122 0-.122.248-.122.372l.245.249zm.856-.62c.244 0 .244-.249.366-.249v-.497h-.366c-.123.125-.245.373-.245.497h.245zm-7.093-3.726c.123 0 .123 0 .245-.125 0 0 0-.248-.122-.248h-.245c0 .124 0 .124.122.373m10.15-.621-.245-.497s-.367.372-.244.497c.366.372.489 0 .611 0zm-28.981-1.863s.122-.124.122-.249h-.122c-.245 0-.122.125-.245.249z"/><path d="M139.025 24.296c-.244-.124-.489 0-.734 0-.366.124-.366.497-.489.87h.367c.245.124.367 0 .49-.249.122 0 .244-.124.366-.248h-.122m-11.128 7.079c-.367-.248-.611 0-.978 0-.49.124-.49.621-.49.994h.49c.245.124.49-.125.611-.249q.367 0 .367-.372l-.122-.125"/></g><g fill="#a41111"><path d="M133.4 26.035c-.244-.124-.489 0-.733 0-.367.124-.367.497-.49.87h.367c.245.124.367 0 .49-.25.122 0 .244-.123.366-.247h-.122m-3.668-5.962c-.245-.124-.49 0-.734 0-.367.124-.367.497-.49.87h.368c.244.124.366 0 .489-.249.122 0 .244-.124.366-.248h-.122m2.69 3.105c-.244-.125-.489 0-.733 0-.367.124-.367.496-.49.869h.367c.245.124.367 0 .49-.248.122 0 .244-.125.366-.249h-.122"/><path d="M97.45 64.908c-.123-.373-.245-.87 0-1.242h.489c.366.124 0 .621.366.745.49.249 1.346.249 1.223.994 0 .248-.367.372-.489.372-.611 0-1.345-.372-1.59-.993zm2.69-1.987c.733-.373.244-1.242.611-1.863 0-.248.245-.248.49-.248.488-.249.366-.746.366-1.118 0-.249.122-.497.367-.621.367-.124.367-.621.611-.745 0-.124.367-.249.612-.249.367-.248.733-.62.733-.993 0-.621-.611-.87-.733-1.49-.123-.249-.245-.622 0-.87.122-.248.244-.497.244-.87-.122-.248-.367-.248-.611-.248-.367.125-.245.497-.245.87l-.367.496c0 .373 0 .746.245 1.118 0 .124 0 .373-.122.497h-.245c-.244-.124 0-.373 0-.621 0-.124-.367-.248-.489-.124-.122.248-.49.248-.611.372-.49.621.122 1.118.367 1.74 0 .372-.367.62-.734.744-.734.373-.245 1.366-.978 1.74-.367 0-.734 0-.979.123-.244.124-.244.497-.244.745 0 .249.244.497.489.621-.122.249-.49.125-.612.373-.244.497 0 1.118.245 1.49.734.994 1.223-.372 1.957-.496zm-1.1-.994c0-.248-.245-.372-.49-.496.122.124.611-.249.734.124 0 .248 0 .372-.245.497-.122 0 0-.373-.122-.249zm50.624-5.837c.366.124.733-.124.978-.372.367 0 .734 0 .856-.249.367-.372-.367-.372-.49-.745.245-.124.368-.124.49-.373v-.496l-.245-.373c-.611 0-.611.249-1.223.249-.61 0-.61-.621-.855-1.118-.245-.994.366-2.112-.245-2.98-.245-.25-.611-.25-.978-.374-.734-.372 0-1.117-.245-1.614h-.489c-.245-.124 0-.497-.245-.621 0-.124-.244-.248-.489-.248-.122 0-.244-.249-.244-.373.122-.497 0-.994-.49-1.366-.244-.373.245-.497.245-.87 0-.124 0-.372-.122-.496-.49 0-.367 0-.49.248-.121.248 0 .497-.244.745h-.244c-.245 0-.245-.497-.245-.497a.607.607 0 0 0 0-.869c-.244-.124-.489 0-.734 0-.122-.124-.244-.248-.244-.497.244-.248 0-.62 0-.869-.122-.124-.245-.745-.49-.745-.488-.124-.488 0-.61-.249 0-.372-.49-.248-.49-.62-.244-.249 0-.497 0-.87 0 0 0-.248-.122-.373 0-.248.367-.248.611-.372-.122.248-.122.497-.244.62 0 .25 0 .622.244.746.49.373.49-.497.856-.373 0 .125-.122.373-.244.497 0 .124.122.249.367.249 0 0 .366-.125.366-.373.123-.248-.244-.373.123-.62.122-.125.244-.25.367-.498v-.497c-.49 0-.612-.496-1.101-.62-.245 0-.245.372-.367.496 0 0-.244.124-.367 0 .123-.372-.367-.62 0-.87 0-.247 0-.496-.244-.62-.245 0-.612 0-.734.248-.244.249 0 .746 0 .994 0 .372-.611.124-.734.497 0 .372-.244.496-.244.745 0 0 0 .372-.122.372 0 .373.122.746.489.994-.123.621.367.497-.367.621-.245 0-.612.124-.856-.248 0-.621-.245-.994-.367-1.49h-.978c-.978-1.243-1.468-1.367-2.568-2.112-.367-.248-.367-.745-.612-1.118 0-.497-.489-.372-1.1-.62-.122 0-.245 0-.367.123-.245.249-.367.746-.734.621-.733-.745.49-.993.734-1.49 0-.248 0-.497-.122-.62-.367-.25-.612.247-1.1.123 0 0-.245-.248-.245-.372 0-.249 0-.497.122-.497 0-.373.367-.87 0-1.118 0-.248-.245-.124-.245-.372-.489-.87.856-.87.856-1.49 0-.25-.122-.373-.244-.498h-.49c-.244.497-.61 0-.978.125-.611 0-.733.993-1.467.869-.245 0-.245-.373-.367-.373-.489-.496-.978.249-1.467 0 0-.248-.245-.496-.49-.745-.244 0-.61.124-.61.497 0 .248-.368.248-.612.248-.245 0-.49.249-.612.497-.244.249 0 .621-.244.994h-.122c-.612-.497.244-1.118 0-1.739 0-.124-.245-.248-.367-.248s-.245.248-.367.372c0 .124-.122.373 0 .497 0 .124.122.248 0 .373 0 0 0 .248-.122.248h-.245c-.244-.124 0-.373-.122-.621.244-.621.367-1.366 0-1.863v-.62c0-.622.611-.622.856-1.119 0-.248.122-.496 0-.745-.245-.248-.612-.248-.978-.124-.367 0-.856.497-1.223 0-.612-.621 0-1.49-.49-1.987 0-.249-.244-.497 0-.621.49-.249.979-.621 1.223-1.118 0-.372.612-.497.49-.87q0-.558-.367-1.117c0-.248 0-.621.244-.745h.49c.244.124.366-.249.61-.249 0-.372.245-.62.49-.869.367 0 .49.373.734.497 0 .248.122.497 0 .745v.373c.122.248.489.496.856.496.244 0 .366 0 .489-.248 0-.497.611-.87.489-1.49-.367-.373-.367-.994-.122-1.49a.69.69 0 0 0-.367-.622c-.245 0-.49-.124-.734 0-.611 0-.978.497-1.345.994-.122 0-.245-.124-.367-.249-.244 0-.489 0-.734.249l-.244-.249c-.122-.248 0-.496 0-.745.367 0 0 .249 0 .373s.244.124.244.248c0 0 .123-.248.123-.372s0-.373-.123-.497c0-.248.123-.745 0-.994-.856-.372.245-.993-.122-1.49-.122-.248-.489-.248-.611-.497 0-.248.244-.372.244-.497.123-.248-.244-.62 0-.745.245 0 .245.373.49.249 0 0 .122 0 .122-.125.244 0 .244-.372.367-.62 0-.249.366-.249.489-.373.122 0 .366 0 .489-.248v-.497c0-.124-.245-.249-.49-.249-.244 0-.122.249-.366.373-.122 0 0-.248-.245-.248-.244 0-.367-.373-.367-.746 0-.248 0-.496.245-.62 0-.249.245-.497 0-.746v-.248c-.367-.373-.49-.994-.367-1.49 0-.125-.122-.249-.367-.249-.367.124-.367.497-.489.745 0 .621-.734.124-.978.621 0 .249 0 .373.122.621.367.621-.367.621-.611.994-.367.497-.245.993-.245 1.614 0 .125-.122.373-.367.249-.366-.497 0-.994.245-1.615.244-.372 0-.745.122-1.118 0-.496.734-.745.49-1.242-.49-.496.366-.869.244-1.366 0-.124-.122-.248-.245-.248-.856.87-.856 1.987-1.345 3.105-.367.62-.856 1.366-.489 2.111-.367.497-.489 1.118-.367 1.739 0 .372-.367.497-.611.62-.612.498-.245 1.367-.856 1.864-.367.372-.856 0-1.223.248-.244.497-.611.994-.489 1.49-.367.373-.49.746-.734 1.242-.367 0-.611.373-.856.621 0 .621-.733.497-.978.87-.245.372.122.62.367.87 0 .123-.245.123-.245.248-.733 0-1.345-.373-1.956.124-.367.372-.49 1.118-.978 1.118h-.123s0-.125-.122-.249c0-.124.122-.248.245-.372v-.373c0-.248-.367-.124-.612-.248-.489 0-.489.62-.856.745-.244-.249-.489-.621-.978-.621-.245 0-.611.248-.734.62 0 .498-.244.746-.611 1.118-.245 0-.49.249-.734.373 0 .124-.244 0-.244 0 0-.248.366-.373.489-.497.122-.124 0-.248 0-.372-.367-.249-.734.124-.979.372-.122.124-.244 0-.366 0-.367-.496-.979 0-1.468 0-.367-.372-.611-.745-1.1-.993-.245 0-.612 0-.856.124-.612.373-.367-.497-.734-.621h-.611s-.123.248-.123.373c.123.372.245.745.123 1.117.367.373.611.87 1.1.994.856-.124 1.223.62 1.59.993.611 0 1.1.621 1.834.249.49-.249 1.223-.124 1.834 0 .245 0 .367.372.49.62.122 0 .366.125.489.125.244 0 .61-.124.733-.373 0-.248.123-.62.49-.745 0 0 0 .124.122.249-.245.372-.612.62-.49.993 0 0 0 .249.245.249.245.248.49.62.611.993 0 .249.367.373.612.497.611.248 1.345.248 1.834-.248.245 0 .49-.125.612 0 .122.496.61.869 1.1 1.117.122.249 0 .621.245.87.856.745-.245 1.738.733 2.36.367.496-.122 1.49.612 1.738.244 0 .489-.248.611 0 0 .621-.734.621-1.1.87-.734.372-.856 1.117-.856 1.862 0 .497.733.497 1.1.621.245.125.49.497.856.249.245-.249.367-.621.49-.87 0-.124.244-.248.488-.248.612.373-.244.87 0 1.366.123.249.367.373.612.249.978.62 0 1.49-.245 2.235 0 .248 0 .497.122.621.49.124.734-.373 1.101-.621.367-.124.611.248.978.124.367-.248.367-.745.49-.993.122-.497.733-.373.978-.621.366-.497.856-1.118 1.467-.994.367.249.734.497 1.223.497.611 0 .978-.745 1.712-.497.367 0 .611-.62.856-.745.489.124.856-.497 1.1-.745h.367c.245-.124.367.124.49.248.244.249.488 0 .733 0 0 0 .244-.248.367-.248.122 0 .244 0 .367.248.244.745.978.497 1.59.497.366.248.244.62.488.994h.123c.611 0 .489.869.978.993.49.124.611-.373 1.1-.248.49.372-.489.372-.366.87 0 .123 0 .372.244.496.367.248.612-.745.856-.249 0 .497.612.746.856.87.856.248.367 1.242.612 1.739.244.496.733 0 1.1.124.611.248.122 1.117.49 1.49.366.497.977.248 1.467.373 0 0 .122.124.122.248a.67.67 0 0 0 .611.373c.612 0 .367-.746.856-.994 0 0 .123 0 .245.124 0 .249-.245.249-.367.497 0 .248-.245.497 0 .745.367.249.49-.248.856-.248.367.248 0 .87.244 1.242.123.372.612.372.856.62.612.25.245.994.612 1.243.122.248.489 0 .611 0v.248c0 .373 0 .621.245.87h.489c.245-.249-.245-.621.122-.746 0 0 .245 0 .245.125.122 0 0 .248 0 .248-.245.87.978.87.856 1.614.244.373-.245.621-.123.994.245.373.856.745 1.101 1.242.122 0 .245.248.245.497.122.497.733.372.978.62v.373c0 .124-.245.249-.367.373v.248c0 .497.611.249.856.373 0 0 .245.124.245.248s.244.373.366.373zm-46.1-.745c.122 0 .244-.248.366-.373v-.62c-.244-.125-.366 0-.489.248 0 .124-.244.372 0 .497 0 .124.245.248.367.124zm44.51-.497c0-.124.122-.372 0-.497 0 0-.122-.248-.245 0-.244 0-.366.373-.244.621.122.125.367 0 .489 0zm2.812-1.738c0-.125.123-.373.123-.497-.123-.249 0-.621 0-.87 0-.372 0-.745-.367-.869-.367 0-.49.373-.734.621-.489.621.245 1.118.245 1.739.244.248.489 0 .611 0zm-43.899-.249c.245 0 .49 0 .612-.124.489-.373 1.223-.248 1.59-.745.122-.124.244-.373.122-.621 0-.249-.367-.373-.612-.497-.122 0-.489 0-.489-.373-.367-.372-.367-.993-.367-1.49.123 0 0-.124 0-.248 0-.249-.244-.249-.489-.373-.122 0-.244.249-.367.249-.244.248-.489 0-.733 0 0-.125-.367-.249-.612-.249h-.244c-.612 0-.49.87-.734 1.366-.489.249-.978.621-.978 1.242 0 .373.122.745.489 1.118.245.248.856.248 1.1.124.49-.745.979.249 1.468.373zm-3.179-.62c.245-.25 0-.498 0-.87-.122-.124-.244 0-.367 0v.497c.123.124.367.248.49.248zm7.337-2.236h.734c.244-.249.733 0 .856-.249.122 0 .244-.248.122-.372-.245-.373 0-.994-.245-1.242-.244-.124-.489 0-.733 0-.123 0-.367.124-.367 0-.49 0-.245-.745-.856-.87-.245-.124-.367-.496-.367-.745.245-.372.245-.87.245-1.242s.611-.62.244-.993h-.489c-.245 0-.367.62-.611.372 0-.248.122-.497.244-.62.612-.25.978-.87 1.1-1.491v-.248c.245 0 .368-.125.612-.249.367-.124.612.249.978 0 .49-.248.49-.87.856-1.242h.49c.366 0 .61 0 .855-.372 0-.373 0-.87-.122-1.118-.244-.249 0-.497 0-.87-.122-.372-.122-.869-.611-.869-.367 0-.49.124-.734.373v.496c0 .373-.244.87-.611.994-.245.373-.49.87-.856 1.242-.49.248-.979.621-.979 1.118h-.366c-.49.248-.612.87-1.1 1.242-.245.248-.123.62-.123.87 0 .372-.49.496-.612.62-.244.248-.366.621-.244.87 0 .372.611.745.244 1.117-.366.373-.733 0-1.1 0-.245 0-.367 0-.49.373a1.08 1.08 0 0 0 0 .87c.245 0 .49.248.734 0 .49-.373 1.1-.25 1.712 0 .367.123.367.62.612.869.489.124.856.62.856 1.117v.249zm-.978-.746v-.372s-.245-.248-.367 0v.372s.244.249.367 0m-.734-.372c.367-.248.245-.497.245-.87-.123-.372-.612-.248-.856-.248-.123 0-.367.249-.367.373s.244.372.367.248c.244 0 .367.497.611.373zm37.663-2.236c.122 0 .122-.248.122-.372 0-.249-.245-.497-.49-.373v.249c0 .124.123.372.368.372zm-4.525-2.235c0-.249-.489-.497-.367-.87 0-.248.245-.496.367-.745h.245c0 .621 0 1.118.244 1.615v.621c-.244 0 0 .124-.122.124-.367-.124 0-.62-.122-.87zm2.446-2.236c.245 0 .245-.248.245-.496 0-.125-.245-.249-.367-.249 0 .124-.245.249-.123.373 0 .124.123.248.367.248zm-31.304-.372c.244 0 .367-.373.367-.745 0-.249-.245 0-.49 0-.244.124 0 .496 0 .745zm6.97-.745a.67.67 0 0 0 .611-.373h.612c.244 0 .367-.248.489-.373 0-.372.489-.62.367-.993-.245-.621-.612.248-.979 0-.244 0-.489-.249-.733-.249-.122 0-.245.249-.245.497.245.373-.244.621-.244.994.122 0 0 .248 0 .372zm19.565-2.609c.245 0 .245-.248.367-.372v-.497c-.245-.124-.367 0-.612.249-.122 0-.244-.125-.366-.125-.367.373-.367-.372-.734-.248-.122.248-.49 0-.49.373.245.124.368.372.612.62.49.249.245-.372.612-.496 0 0 .244.124.122.248 0 .248.367.373.489.373zm-1.957-1.241c.49.248.612-.249.856-.497 0-.249 0-.497-.122-.745-.367-.249 0-.621 0-.87 0-.248-.244-.248-.367-.372v-.249c0-.124 0-.372-.122-.497-.122 0-.367-.248-.611-.124-.245 0-.123-.372-.49-.497-.489-.248-.61.373-1.1.497-.367 0-.734-.372-1.1-.124v.621c.61.373.244.87.244 1.366 0 .124.122.373.367.373.367 0 .489-.249.734-.497 0 0 .122 0 .244.124 0 .373-.611.745-.244 1.118.122 0 .366.124.489 0 .489-.373.978 0 1.345.248zm-20.665-2.981c-.122-.373.244-.745.122-1.118.49.373.856-.372 1.223.124 0 .124.245.373 0 .497-.245.497-.734.621-1.1.745-.245 0-.367 0-.367-.248zm12.473-1.863c0-.124 0-.497.244-.497.245 0 .734-.372.856 0v.621c-.244.373-.489 0-.856 0l-.244-.248zm.244-1.863c.122-.124.245-.373.245-.497 0-.248-.245-.248-.367-.372-.245 0 0 .124 0 .248 0 .248-.122.373-.122.497s.244.124.366.124zm-5.38-.373c.122-.124.367-.124.489-.372 0-.497-.49-.621-.734-1.118 0 0-.122.124-.122.248-.122.249 0 .621 0 .87.122 0 .245.372.49.372zm6.48-.248c.368-.124.49-.497.734-.745 0-.124.123-.373 0-.497 0-.248.245-.497.49-.62v-.498c0-.248-.245-.372-.49-.372-.244.248-.366.497-.244.745-.122.248-.49.497-.612.87.123.372 0 .62 0 .993.123 0 .123.124.245.124zm1.224-1.242c0-.124 0-.373-.123-.373-.244 0-.244.249-.367.249 0 .124.245.372.49.124m-21.155-1.49v-.497c.367 0 .367-.497.611-.621.245-.373.245-.994.856-.87.245 0 .245.249.49.249.366.248.855.248.855.745s-.489.497-.856.621c-.489 0-1.1 0-1.345.497-.122 0-.367 0-.489-.248zm-.612-2.484c0-.373 0-.87.367-1.118.367.248 0 .745 0 1.118 0 .124-.367 0-.367 0m7.337-.497c0-.248 0-.497.245-.62.367-.25.734-.25.978-.622 0-.248.122-.372 0-.62 0 0-.244-.25-.367-.25-.122-.123-.367 0-.489 0 0 0-.122.125-.244 0-.123-.123 0-.496 0-.744 0-.249.366-.249.366-.497.245 0 .49-.249.612-.497.244-.745-.612-1.49 0-2.236.122 0 .122 0 .244-.248 1.101 0 .856 1.242 1.223 1.863.367.373.612.745.978.745.367.249.49.745.49 1.242s-.245.87-.612 1.118c-.244 0-.367.248-.611.248-.245-.372-.49-.248-.856-.248-.612.372-.856.993-1.468 1.366-.122 0-.366 0-.366-.124zm-18.097-.62c.244 0 .367-.125.367-.25 0-.248 0-.62-.245-.744-.367-.125-.49 0-.734.248v.248c.123.124.367.373.49.621zm19.442-1.243c-.122-.62.367-1.118.612-1.614.122 0 .244-.249.489-.249.122.124.122.373.122.621 0 .249-.367.249-.367.497v.745s-.122.249-.366.249c-.123 0-.367 0-.49-.125zm19.932-1.118c.123-.248.612-.496.49-.869 0 0 .122-.248.366-.124.123-.249.367 0 .49-.373v-.497c0-.248-.367-.124-.612-.248-.122-.124-.245.124-.367 0v-.373c0-.248.122-.372.245-.496.244.124-.123.248 0 .496h.367v-.248c-.123 0-.245-.248-.49-.248 0-.125.245-.249.367-.373.856.248.49-.62 1.1-.87.49-.496 1.346.125 1.713-.496 0-.248-.245-.497-.245-.745.367-.249.856 0 1.1-.497 0-.497.49-.87.734-1.118.245-.124.367.249.612.249v.248c-.245 0-.245-.248-.612-.248 0 .248-.366.248-.489.372v.373c.123 0 .245 0 .367-.124h.367c.367 0 .49-.497.856-.621.244 0 .489-.125.734-.125.244 0 .366.373.611.497h.49c.244 0 .121.249.244.373.244 0 .367 0 .611.124.245 0 .367 0 .49-.248 0-.249.244-.497 0-.621 0-.125 0-.373.122-.497.244-.373.733-.373.855-.87 0 0 .123-.124.245 0 0 .125 0 .125-.122.249v.372c0 .125.244.125.489.125.367 0 .734-.249 1.1-.497.245-.249 0-.497 0-.87 0 0 .123-.124.245-.124s.245.249.367.373c.367-.249.489.372.856.248.244-.124.611-.248.611-.497 0 0-.244-.124-.244-.248-.245 0-.367.373-.612.373v-.125c.123-.372.612-.248.856-.248h.122c.245 0 .49 0 .612-.372.244 0 0-.497.122-.621.367-.249.49-.746.367-1.118-.245-.373-.245-.87-.856-.87 0 0-.122.125-.367.125-.122 0-.244.124-.244.248 0 0-.245.124-.245 0-.122-.248 0-.497.245-.745 0-.249 0-.497-.245-.621h-.611c-.245.124-.734 0-.979.248-.611.621-1.59.745-2.445.87-.245 0-.367.248-.367.496-.245.621-.978.125-1.467.497a3.8 3.8 0 0 0-.979.994c0 .248-.367.248-.611.497-.122-.249-.367-.125-.611-.125-.245 0-.367.373-.612.621-.244 0-.367.497-.611.497-.367.497-.49-.248-.856 0-.367.248-.734.248-1.1.497h-.245c-.734 0-1.345.497-1.957.248-.489 0-1.1-.248-1.467 0q-.55 0-1.1.373c-.245 0-.49.248-.734 0-.734 0-1.468.248-2.324 0-.489-.249-1.1 0-1.467.248-.122 0-.49-.124-.612.124-.122.125 0 .497-.366.373v-.248c0-.249.244-.497 0-.621-.123-.373-.612-.125-.856-.125-.245-.124 0-.372-.123-.62 0-.249-.367-.249-.489-.249-.244 0-.367.248-.244.497.122.248.489.497.733.497.245.124 0 .496 0 .745.245.124 0 .372.245.497 0 .248.244.248.244.372h.123v.124s.244.125.367 0c.244 0 .489-.124.489-.372v-.124c0-.249.489-.249.733-.373 0 0 .245.248.245.373 0 .124-.122.248-.245.248-.856.124-1.345.87-1.956 1.49-.49 0-.245-.372-.49-.62-.122 0-.366 0-.488.124h-.367v-.994c0-.248 0-.497-.245-.621-.244 0-.367.124-.489.373-.122.372-.734.248-.856.62-.244.125-.244.373-.489.373-.245-.124-.611-.124-.611-.497-.367 0-.245-.372-.49-.496h-.489c-.122.248 0 .372 0 .62-.122.125-.367 0-.489.249-.122.248-.367.373-.611.62 0 .25-.245.374-.245.622 0 .124.245.248.367.248.367-.248.856-.62 1.345-.745.367 0 .612.249.856.497.612.248.734.87 1.1 1.242 0 .248.49.248.368.497.244.248-.49.372-.367.745.122.248.367 0 .611 0 .245-.124.611 0 .856 0s.367.124.49 0c.244 0 .366-.249.366-.373.122-.248.245-.62 0-.87 0-.372.367-.744.611-1.117 0-.124 0-.372.123-.497.367-.496.978-.869 1.712-.745 0 .124.244.373.366.497 0 .248.367.124.612 0 .244-.248.611-.497.611-.87.245-.248.49-.496.856-.372.734.124.123.745.245 1.118.122.248.367.62.734.62.122 0 .366 0 .489-.123.122-.249.122-.497 0-.621 0-.125.244 0 .367 0v.248c0 .248.244.373.366.497.123.372-.489.372-.489.745 0 .248.123.497.367.62v.25s-.244.123-.367.123c-.367.249.123.373-.122.621 0 .125 0 .373.122.497.245.124.245-.124.367-.248 0-.373.49-.373.734-.373 0 0 .122.249.244.373.367 0 0 .248.123.497 0 0-.245.124-.367.248v.497c.122 0 .244.124.489.124zm-6.847-3.229v-.62c-.123 0-.245-.25-.367-.125-.123.249-.612.497-.367.87.122.496.611.248.856 0zm6.236-2.235c-.122 0-.245-.124-.49-.249-.122-.372.123-.869-.122-1.242 0-.372-.489 0-.366-.496 0-.497.611.496.856-.249l.611-.372c.245 0 .611.124.611.496-.122.373-.733.621-.611.994 0 .124.245.124.245.124.366 0 .244-.372.489-.497 0 0 .244-.248.367-.248.122 0 0 .248 0 .248-.612.249-.367.994-.734 1.49-.367 0-.856.125-.978-.248zm10.272-5.092c0-.249.244-.249.366-.249.367-.248.49-.745.856-.372.49-.124.856-.621 1.223-.994.245-.248.49-.745.856-.62.245.248.367.62.245.869-.123.248-.367.62-.612.745 0 .248-.367 0-.489.372-.244 0-.611.249-.856.249-.489 0-.978 0-1.467.372 0 0-.367 0-.245-.124zm-24.579-3.23c.245 0 .245-.372.122-.62h-.244c-.123 0-.245.248-.245.496h.245zm30.081-.248c.245.124.367 0 .49-.248.122 0 .244-.124.366-.248h-.122c-.245-.249-.49 0-.734 0-.367.124-.367.496-.489.869h.367zm-30.937-.496c0-.497.245-.994.245-1.49 0-.25.489-.373.489-.622.244-.497-.367-.62-.367-1.118 0-.124.122-.248.244-.372.245-.373.49-.87.367-1.118-.367 0-.611.373-.856.745 0 .373-.244.745-.611.994 0 .124-.122.372 0 .497a1.14 1.14 0 0 0 0 1.242c.367.372-.245.745 0 1.242 0 .248.489.496.611.124z"/></g></g></svg>