<svg xmlns="http://www.w3.org/2000/svg" xmlns:xlink="http://www.w3.org/1999/xlink" width="40" height="36"><defs><path id="a" d="M0 0h40v36H0z"/></defs><g fill="none" fill-rule="evenodd"><mask id="b" fill="#fff"><use xlink:href="#a"/></mask><path fill="#e1f0f6" d="M23.867 1.396H11.733a6.07 6.07 0 0 0-5.254 3.038L.413 14.958a6.08 6.08 0 0 0 0 6.076L6.48 31.558a6.07 6.07 0 0 0 5.254 3.038h12.133a6.07 6.07 0 0 0 5.254-3.038l6.067-10.524a6.08 6.08 0 0 0 0-6.076L29.121 4.434a6.07 6.07 0 0 0-5.254-3.038" mask="url(#b)" transform="rotate(17 17.8 17.996)"/><g stroke="#006186" stroke-linejoin="round" stroke-width=".774" mask="url(#b)"><path stroke-linecap="round" d="M23.295 34.549c8.867 0 16.055-7.188 16.055-16.055S32.162 2.44 23.295 2.44 7.24 9.628 7.24 18.494s7.188 16.055 16.055 16.055"/><path d="M31.2 22.976a1.09 1.09 0 0 1-1.089 1.089H16.478a1.09 1.09 0 0 1-1.089-1.089v-8.962a1.09 1.09 0 0 1 1.089-1.089h13.633a1.09 1.09 0 0 1 1.089 1.089z"/><path stroke-linecap="round" d="m15.637 13.39 5.602 5.105 2.055 1.873 7.659-6.978m-11.028 6.303-4.294 3.912m15.315-.001-4.292-3.912"/></g></g></svg>