<?xml version="1.0" encoding="UTF-8"?>
<svg width="58px" height="58px" viewBox="0 0 58 58" version="1.1" xmlns="http://www.w3.org/2000/svg" xmlns:xlink="http://www.w3.org/1999/xlink">
    <title>icons/Quotes Solid</title>
    <g id="Components" stroke="none" stroke-width="1" fill="none" fill-rule="evenodd">
        <g id="Components-/-Image-Container-/-Desktop-/-Horizontal-Paid" transform="translate(-280.000000, -127.000000)">
            <g id="icons/Quotes-Solid" transform="translate(280.500000, 127.500000)">
                <path d="M28.669,57.338 C44.5025,57.338 57.338,44.5025 57.338,28.6685 C57.338,12.836 44.5025,1.42108547e-14 28.669,1.42108547e-14 C12.8355,1.42108547e-14 0,12.836 0,28.6685 C0,44.5025 12.8355,57.338 28.669,57.338" id="Stroke-1" fill="#F16464"></path>
                <path d="M40.7374122,41 L31.5,41 L31.5,32.7076241 C31.5,28.0549628 32.022541,24.5935627 33.0661593,22.3219252 C34.3776347,19.5033565 36.587822,17.3965476 39.6937939,16 L41.5,20.811496 C39.6791569,21.5487293 38.360363,22.5856509 37.545082,23.9222608 C36.7283372,25.2588708 36.3053279,27.1004555 36.280445,29.4470151 L40.7374122,29.4470151 L40.7374122,41 Z M24.7374122,41 L15.5,41 L15.5,32.7076241 C15.5,28.0279909 16.095726,24.4167466 17.287178,21.8708943 C18.47863,19.3265404 20.6141686,17.3680772 23.6923302,16 L25.5,20.811496 C23.6923302,21.5487293 22.3764637,22.5856509 21.5538642,23.9222608 C20.7312646,25.2588708 20.2921546,27.1004555 20.2394614,29.4470151 L24.7374122,29.4470151 L24.7374122,41 Z" id="Stroke-1" stroke="#FFFFFF" stroke-width="1.4976"></path>
            </g>
        </g>
    </g>
</svg>