<?xml version="1.0" encoding="UTF-8"?>
<svg width="23px" height="22px" viewBox="0 0 23 22" version="1.1" xmlns="http://www.w3.org/2000/svg" xmlns:xlink="http://www.w3.org/1999/xlink">
    <title>Path</title>
    <g id="Layout" stroke="none" stroke-width="1" fill="none" fill-rule="evenodd">
        <g id="Layouts-/-Desktop-/-1.1_WhyVyepti_HowVyeptiWorks" transform="translate(-1155.000000, -784.000000)" fill="#FAAF3B" fill-rule="nonzero">
            <g id="Group-32" transform="translate(0.000000, 595.000000)">
                <g id="Group-22" transform="translate(1155.000000, 141.302632)">
                    <g id="Group-13" transform="translate(0.000000, 47.196356)">
                        <path d="M22.5015478,3.9098431 C22.5015478,2.06966989 21.1316297,0.579959514 19.4412075,0.579959514 C18.8380648,0.579959514 18.27414,0.755260445 17.7913554,1.10572329 C16.0603631,2.06966989 15.215152,4.34802592 11.2703828,4.34802592 C7.32561359,4.34802592 6.48040249,2.06966989 4.70884004,1.10572329 C4.22605547,0.755260445 3.66213062,0.579959514 3.05898799,0.579959514 C1.3685658,0.579959514 0,2.06966989 0,3.9098431 C0,5.00516114 0.482784576,5.96910773 1.20763761,6.53866199 C1.20763761,6.53866199 3.29970411,8.33490571 4.30719573,9.95612653 C6.84282901,14.0745168 5.31333502,20.9970268 5.31333502,20.9970268 C5.75554946,21.8732534 16.8650041,21.8732534 17.349141,20.9970268 C17.349141,20.9970268 15.7385067,14.0745168 18.27414,9.95612653 C19.2802793,8.33490571 21.3736981,6.53866199 21.3736981,6.53866199 C22.057981,5.96910773 22.5015478,5.00516114 22.5015478,3.9098431 Z" id="Path"></path>
                    </g>
                </g>
            </g>
        </g>
    </g>
</svg>