<svg xmlns="http://www.w3.org/2000/svg" width="43" height="40" fill="none" fill-rule="evenodd"><path fill="#f16464" d="M2.022 17.098 24.4.942c2.673-1.93 6.476-.765 7.571 2.32L42.71 33.506c1.422 4.004-2.663 7.763-6.611 6.083L2.982 25.501c-3.506-1.492-4.042-6.179-.96-8.404" opacity=".15"/><path stroke="#006186" stroke-linecap="round" stroke-linejoin="round" stroke-width=".774" d="M24.39 37.253c8.867 0 16.055-7.188 16.055-16.055S33.256 5.144 24.39 5.144 8.335 12.332 8.335 21.198s7.188 16.055 16.055 16.055"/><path stroke="#046183" stroke-width=".84" d="M25.013 19.425c-2.866-.593-3.485-.949-3.485-1.998 0-1.065 1.267-1.965 2.767-1.965s2.767.9 2.767 1.965h3.162c0-2.345-1.845-4.322-4.348-4.92v-1.762h-3.162v1.762c-2.504.598-4.348 2.575-4.348 4.92 0 3.833 3.612 4.582 6.002 5.077 2.866.593 3.485.949 3.485 1.998 0 .687 0 1.965-3.558 1.965-2.036 0-3.558-1.038-3.558-1.965h-3.162c0 2.449 2.159 4.44 5.139 4.968v1.715h3.162v-1.67c4.417-.532 5.139-3.293 5.139-5.013 0-3.833-3.611-4.582-6.002-5.077z"/></svg>