<?xml version="1.0" encoding="UTF-8"?>
<svg width="165px" height="156px" viewBox="0 0 165 156" version="1.1" xmlns="http://www.w3.org/2000/svg" xmlns:xlink="http://www.w3.org/1999/xlink">
    <title>icon-savings-coral-165-desktop</title>
    <g id="Build-Kit" stroke="none" stroke-width="1" fill="none" fill-rule="evenodd">
        <g id="icon-savings-coral-165-desktop">
            <path d="M7.75879051,65.9565971 L93.6292448,3.63301484 C103.887338,-3.81225617 118.479233,0.683260245 122.682566,12.5836401 L163.891659,129.253386 C169.347225,144.698676 153.672224,159.19884 138.523243,152.720612 L11.4436963,98.374448 C-2.01055881,92.6208171 -4.06562897,74.5387598 7.75879051,65.9565971" id="Fill-1" fill="#FDE8E8"></path>
            <g id="Group-5" transform="translate(25.4306, 16.9516)">
                <path d="M68.23222,136.46444 C105.91595,136.46444 136.46444,105.91595 136.46444,68.23103 C136.46444,30.54968 105.91595,0 68.23222,0 C30.54849,0 0,30.54968 0,68.23103 C0,105.91595 30.54849,136.46444 68.23222,136.46444" id="Stroke-1" stroke="#006186" stroke-width="3.29035" stroke-linecap="round" stroke-linejoin="round"></path>
                <g id="noun-dollar-5224780" transform="translate(39.27, 23.8)" fill-rule="nonzero" stroke="#046183" stroke-width="3.57">
                    <path d="M31.6106,36.8930208 C19.4306,34.3708394 16.8,32.8602481 16.8,28.3998077 C16.8,23.8719874 22.18552,20.0469231 28.56,20.0469231 C34.93448,20.0469231 40.32,23.8719874 40.32,28.3998077 L53.76,28.3998077 C53.76,18.4328673 45.91776,10.0332066 35.28,7.49031006 L35.28,0 L21.84,0 L21.84,7.49031006 C11.19888,10.0331509 3.36,18.4328673 3.36,28.3998077 C3.36,44.6912738 18.71184,47.8726092 28.8694,49.9769792 C41.0494,52.4991606 43.68,54.0097519 43.68,58.4701923 C43.68,61.3903608 43.68,66.8230769 28.56,66.8230769 C19.9052,66.8230769 13.44,62.4127538 13.44,58.4701923 L0,58.4701923 C0,68.8776081 9.17644,77.3382449 21.84,79.5829435 L21.84,86.87 L35.28,86.87 L35.28,79.7733892 C54.05204,77.5144073 57.12,65.7800801 57.12,58.4701923 C57.12,42.1787262 41.77152,38.9973908 31.6106,36.8930208 L31.6106,36.8930208 Z" id="Path"></path>
                </g>
            </g>
        </g>
    </g>
</svg>