<svg xmlns="http://www.w3.org/2000/svg" width="112" height="106" fill="none" fill-rule="evenodd" xmlns:v="https://vecta.io/nano"><path d="M82.283 17.758L53.275 8.89c-5.182-1.584-10.816-.279-14.781 3.423L16.297 33.039a15.21 15.21 0 0 0-4.441 14.526l6.812 29.595c1.217 5.286 5.158 9.519 10.34 11.103l29.008 8.869c5.182 1.584 10.816.279 14.781-3.423l22.197-20.727a15.21 15.21 0 0 0 4.441-14.526l-6.812-29.595c-1.217-5.286-5.158-9.519-10.34-11.103" fill="#f16464" opacity=".148"/><path d="M64.382 93.394c22.167 0 40.137-17.97 40.137-40.137s-17.97-40.136-40.137-40.136-40.137 17.97-40.137 40.136 17.97 40.137 40.137 40.137" stroke="#006186" stroke-width="1.936" stroke-linecap="round" stroke-linejoin="round"/><path d="M65.939 48.823c-7.165-1.484-8.712-2.372-8.712-4.996 0-2.663 3.168-4.913 6.918-4.913s6.918 2.25 6.918 4.913h7.906c0-5.863-4.613-10.804-10.871-12.3v-4.406h-7.906v4.406c-6.259 1.496-10.871 6.437-10.871 12.3 0 9.583 9.03 11.455 15.006 12.692 7.165 1.484 8.712 2.372 8.712 4.996 0 1.718 0 4.913-8.894 4.913-5.091 0-8.894-2.594-8.894-4.913h-7.906c0 6.122 5.398 11.099 12.847 12.419v4.287h7.906v-4.174c11.042-1.329 12.847-8.231 12.847-12.531 0-9.583-9.029-11.455-15.006-12.692h0z" stroke="#046183" stroke-width="2.1"/></svg>