<svg xmlns="http://www.w3.org/2000/svg" width="27" height="27" viewBox="0 0 27 27"><title>tiktok-logo-lowernav-27-desktop</title><g fill="none" fill-rule="evenodd"><path fill="#046183" d="M27 13.5C27 20.956 20.956 27 13.5 27S0 20.956 0 13.5 6.044 0 13.5 0 27 6.044 27 13.5"/><path fill="#fff" d="M18.851 8.225a4.22 4.22 0 0 1-1.906-3.53h-3.009l-.005 12.133a2.537 2.537 0 0 1-2.524 2.45c-.423 0-.822-.107-1.173-.293a2.55 2.55 0 0 1-1.356-2.253 2.54 2.54 0 0 1 2.53-2.545c.26 0 .51.044.745.118v-3.09a5.5 5.5 0 0 0-.746-.055c-3.053 0-5.537 2.5-5.537 5.572a5.58 5.58 0 0 0 2.364 4.563c.9.635 1.993 1.01 3.173 1.01 3.054 0 5.538-2.5 5.538-5.573V10.58a7.13 7.13 0 0 0 4.185 1.355V8.907c-.84 0-1.623-.251-2.279-.682"/></g></svg>