<svg xmlns="http://www.w3.org/2000/svg" width="24" height="24" viewBox="0 0 24 24"><title>tiktok-logo-uppernav-24-desktop</title><g fill="none" fill-rule="evenodd"><path fill="#fff" d="M24 12c0 6.627-5.373 12-12 12S0 18.627 0 12 5.373 0 12 0s12 5.373 12 12"/><path fill="#046183" d="M16.756 7.311a3.75 3.75 0 0 1-1.694-3.137h-2.674l-.005 10.784a2.255 2.255 0 0 1-2.243 2.177c-.377 0-.731-.095-1.043-.26a2.265 2.265 0 0 1 1.043-4.264 2.2 2.2 0 0 1 .663.105V9.969a5 5 0 0 0-.663-.049c-2.715 0-4.923 2.222-4.923 4.953 0 1.676.832 3.159 2.102 4.055.8.565 1.772.898 2.82.898 2.715 0 4.923-2.222 4.923-4.953V9.405a6.33 6.33 0 0 0 3.72 1.204V7.917a3.7 3.7 0 0 1-2.026-.606"/></g></svg>