<?xml version="1.0" encoding="UTF-8"?>
<svg width="24px" height="23px" viewBox="0 0 24 23" version="1.1" xmlns="http://www.w3.org/2000/svg" xmlns:xlink="http://www.w3.org/1999/xlink">
    <title>Group</title>
    <g id="Layout" stroke="none" stroke-width="1" fill="none" fill-rule="evenodd">
        <g id="Layouts-/-Desktop-/-1.1_WhyVyepti_HowVyeptiWorks" transform="translate(-1155.000000, -831.000000)" fill="#F06464" fill-rule="nonzero">
            <g id="Group-32" transform="translate(0.000000, 595.000000)">
                <g id="Group-22" transform="translate(1155.000000, 141.302632)">
                    <g id="Group-15" transform="translate(0.000000, 93.670040)">
                        <g id="Group" transform="translate(0.000000, 1.882591)">
                            <path d="M10.8988314,6.12078761 L0.990051775,0.0855680226 C0.86612318,0.0427840113 0.783504117,0 0.659575522,0 C0.289166722,0 0,0.298151079 0,0.68053318 C0,0.807548213 0.0413095317,0.935900247 0.0826190633,1.02013127 L12.0968079,21.8038018 L10.8988314,6.12078761 Z" id="Path"></path>
                            <path d="M18.5369638,11.0088609 L23.3261155,1.06291528 C23.3674251,0.978684258 23.4087346,0.850332224 23.4087346,0.723317191 C23.4087346,0.34093509 23.0782583,0 22.7064726,0 L11.1466886,0 C10.7762798,0 10.4458036,0.34093509 10.4458036,0.723317191 L10.8588989,6.12078761 L18.5369638,11.0088609 Z" id="Path"></path>
                            <path d="M10.9002084,6.12212462 L12.1381174,21.8051388 C12.262046,22.0177218 12.4685936,22.1447368 12.7164508,22.1447368 C12.964308,22.1447368 13.1708557,22.0177218 13.2947843,21.8051388 L18.5383408,10.9674139 L10.9002084,6.12212462 Z" id="Path"></path>
                        </g>
                    </g>
                </g>
            </g>
        </g>
    </g>
</svg>